<svg width="106" height="106" viewBox="0 0 106 106" fill="none" xmlns="http://www.w3.org/2000/svg">
<g clip-path="url(#clip0_4517_3298)">
<path d="M27.3549 75.2251H1.70972V94.0316C1.70972 94.6146 1.76956 95.1839 1.86359 95.7412H27.3549V75.2251Z" fill="#D3A221"/>
<path d="M59.8387 83.7734V100.87C59.8387 102.759 58.3085 104.29 56.4194 104.29C54.5302 104.29 53 102.759 53 100.87V83.7734H59.8387Z" fill="#D3A221"/>
<path d="M30.4169 65.1037C30.6391 64.5293 30.7742 63.9104 30.7742 63.2573C30.7742 62.582 30.6357 61.9408 30.3981 61.3493C32.5779 60.7577 34.1936 58.7831 34.1936 56.4186C34.1936 53.5908 31.8923 51.2896 29.0645 51.2896H8.54839C5.72058 51.2896 3.41935 53.5908 3.41935 56.4186C3.41935 58.7831 5.035 60.7595 7.21484 61.3493C6.97719 61.9408 6.83871 62.582 6.83871 63.2573C6.83871 63.9104 6.97377 64.5293 7.19603 65.1037C3.127 65.7568 0 69.2651 0 73.5154V94.0315C0 100.631 5.3701 105.999 11.9677 105.999H25.6452C32.2428 105.999 37.6129 100.631 37.6129 94.0315V73.5154C37.6129 69.2651 34.4859 65.7568 30.4169 65.1037ZM10.2581 63.2573C10.2581 62.3153 11.024 61.5476 11.9677 61.5476H25.6452C26.5889 61.5476 27.3548 62.3153 27.3548 63.2573C27.3548 64.1993 26.5889 64.967 25.6452 64.967H11.9677C11.024 64.967 10.2581 64.1993 10.2581 63.2573ZM8.54839 54.7089H29.0645C30.0083 54.7089 30.7742 55.4766 30.7742 56.4186C30.7742 57.3606 30.0083 58.1283 29.0645 58.1283H25.6452H11.9677H8.54839C7.60465 58.1283 6.83871 57.3606 6.83871 56.4186C6.83871 55.4766 7.60465 54.7089 8.54839 54.7089ZM34.1936 94.0315C34.1936 98.7451 30.3587 102.58 25.6452 102.58H11.9677C7.25416 102.58 3.41935 98.7451 3.41935 94.0315V73.5154C3.41935 70.6876 5.72058 68.3863 8.54839 68.3863H11.9677H25.6452H29.0645C31.8923 68.3863 34.1936 70.6876 34.1936 73.5154V94.0315Z" fill="white"/>
<path d="M103.128 78.9487L92.9825 63.7309C92.0729 62.3648 90.5462 61.5476 88.9032 61.5476C87.2602 61.5476 85.7334 62.3648 84.8222 63.7309L74.6769 78.9487C72.7997 81.768 71.8064 85.0471 71.8064 88.4323V88.9024C71.8064 98.3296 79.476 105.999 88.9032 105.999C98.3303 105.999 106 98.3296 106 88.9024V88.4323C106 85.0471 105.007 81.768 103.128 78.9487ZM102.581 88.9024C102.581 96.4438 96.4446 102.58 88.9032 102.58C81.3618 102.58 75.2258 96.4438 75.2258 88.9024V88.4323C75.2258 85.7242 76.0208 83.0998 77.5236 80.8447L87.6688 65.6269C88.2193 64.7994 89.5887 64.7994 90.1393 65.6269L100.284 80.8447C101.786 83.0998 102.581 85.7242 102.581 88.4323V88.9024Z" fill="white"/>
<path d="M99.004 86.6322C98.7612 85.2764 98.2568 84.001 97.5046 82.8418L94.6357 84.7053C95.1401 85.4798 95.4752 86.3295 95.6376 87.234L99.004 86.6322Z" fill="white"/>
<path d="M94.6648 92.5816L97.5473 94.4229C98.2927 93.2586 98.7868 91.9798 99.0176 90.6223L95.6444 90.0496C95.4923 90.9523 95.1623 91.8037 94.6648 92.5816Z" fill="white"/>
<path d="M90.2812 95.601L90.9651 98.9503C92.3141 98.675 93.5741 98.1365 94.7144 97.35L92.774 94.5359C92.0149 95.0608 91.1754 95.4181 90.2812 95.601Z" fill="white"/>
<path d="M71.8065 27.3541C74.6344 27.3541 76.9356 25.0529 76.9356 22.2251C76.9356 19.3973 74.6344 17.096 71.8065 17.096H63.2582V10.2573H64.9678C67.7956 10.2573 70.0969 7.95611 70.0969 5.1283C70.0969 2.30049 67.7956 -0.000732422 64.9678 -0.000732422H47.8711C45.0433 -0.000732422 42.742 2.30049 42.742 5.1283C42.742 7.95611 45.0433 10.2573 47.8711 10.2573H49.5807V17.096H41.0324C38.2045 17.096 35.9033 19.3973 35.9033 22.2251C35.9033 25.0529 38.2045 27.3541 41.0324 27.3541H42.742V66.6767C42.742 69.2498 43.5917 71.8006 45.1356 73.8573L47.8711 77.5041V80.3541C47.8711 83.1819 50.1723 85.4831 53.0001 85.4831H59.8388C62.6666 85.4831 64.9678 83.1819 64.9678 80.3541V77.5041L67.7033 73.8573C69.2472 71.7989 70.0969 69.2498 70.0969 66.6767V27.3541H71.8065ZM46.1614 5.1283C46.1614 4.18627 46.9273 3.41862 47.8711 3.41862H64.9678C65.9116 3.41862 66.6775 4.18627 66.6775 5.1283C66.6775 6.07033 65.9116 6.83798 64.9678 6.83798H47.8711C46.9273 6.83798 46.1614 6.07033 46.1614 5.1283ZM53.0001 10.2573H59.8388V17.096H53.0001V10.2573ZM39.3227 22.2251C39.3227 21.283 40.0886 20.5154 41.0324 20.5154H71.8065C72.7503 20.5154 73.5162 21.283 73.5162 22.2251C73.5162 23.1671 72.7503 23.9348 71.8065 23.9348H41.0324C40.0886 23.9348 39.3227 23.1671 39.3227 22.2251ZM61.5485 80.3541C61.5485 81.2961 60.7825 82.0638 59.8388 82.0638H53.0001C52.0564 82.0638 51.2904 81.2961 51.2904 80.3541V78.6444H61.5485V80.3541ZM66.6775 30.7735H56.4195V34.1928H66.6775V37.6122H59.8388V41.0315H66.6775V44.4509H56.4195V47.8702H66.6775V51.2896H59.8388V54.7089H66.6775V58.1283H56.4195V61.5477H66.6775V66.6767C66.6775 68.5146 66.0706 70.3371 64.9678 71.8057L62.4033 75.2251H50.4356L47.8711 71.8057C46.7683 70.3371 46.1614 68.5146 46.1614 66.6767V27.3541H66.6775V30.7735Z" fill="white"/>
</g>
<defs>
<clipPath id="clip0_4517_3298">
<rect width="106" height="106" fill="white" transform="translate(0 -0.000732422)"/>
</clipPath>
</defs>
</svg>
