<svg width="107" height="106" viewBox="0 0 107 106" fill="none" xmlns="http://www.w3.org/2000/svg">
<path d="M99.5893 71.6943V54.6243L29.602 79.2495L26.9903 80.3352L7.41089 78.5224V95.5924L99.5893 104.127V87.0574L64.937 83.8482L65.6301 83.6434L99.5893 71.6943Z" fill="#D3A221"/>
<path d="M46.6721 35.8472C46.6721 39.6128 49.7345 42.6752 53.5001 42.6752C57.2658 42.6752 60.3282 39.6128 60.3282 35.8472C60.3282 32.0815 57.2658 29.0191 53.5001 29.0191C53.4114 29.0191 53.3294 29.0413 53.2424 29.0447L51.5525 23.4099L48.2818 24.3914L49.9735 30.0297C48.0036 31.2297 46.6721 33.3771 46.6721 35.8472ZM56.9142 35.8472C56.9142 37.73 55.383 39.2612 53.5001 39.2612C51.6173 39.2612 50.0861 37.73 50.0861 35.8472C50.0861 33.9643 51.6173 32.4332 53.5001 32.4332C55.383 32.4332 56.9142 33.9643 56.9142 35.8472Z" fill="white"/>
<path d="M101.296 72.925V52.2207L97.8822 53.4122V35.8471C97.8822 31.1409 94.0534 27.3121 89.3472 27.3121H82.4321C81.541 12.1061 68.9246 0 53.5 0C38.0755 0 25.459 12.1061 24.568 27.3121H17.6529C12.9467 27.3121 9.11787 31.1409 9.11787 35.8471V76.9672L5.70386 76.6514V97.1492L9.13494 97.4667C9.22541 102.094 13.0047 105.834 17.6529 105.834H89.3472C90.0675 105.834 90.7845 105.744 91.4792 105.566L92.541 105.193L101.296 106V85.5006L97.8822 85.1848V74.0619L101.296 72.925ZM97.8822 70.4635L63.3187 81.9841L34.0948 79.2785L51.793 73.1043V76.8153H55.2071V71.9145L60.3281 70.1273V71.6943H63.7421V68.9375L68.8631 67.1502V71.6943H72.2771V65.9587L77.3981 64.1715V66.5733H80.8121V63.1593H80.3035L85.9332 61.1962V66.5733H89.3472V60.0047L97.8822 57.0277V70.4635ZM71.7684 82.7676L87.6402 77.4759V84.2357L71.7684 82.7676ZM53.5 3.41401C67.0434 3.41401 78.1339 13.9889 79.0181 27.3121H75.6041C74.7267 15.8735 65.1589 6.82803 53.5 6.82803C41.8412 6.82803 32.2734 15.8735 31.396 27.3121H27.982C28.8662 13.9889 39.9567 3.41401 53.5 3.41401ZM12.5319 35.8471C12.5319 33.0238 14.8295 30.7261 17.6529 30.7261H38.137V27.3121H34.81C35.1634 23.415 36.7065 19.8593 39.0793 17.012L41.4298 19.3626L43.8435 16.9489L41.493 14.5983C44.3402 12.2239 47.8959 10.6824 51.793 10.3291V13.6561H55.2071V10.3291C59.1041 10.6824 62.6598 12.2256 65.5071 14.6L63.1566 16.9506L65.5703 19.3643L67.9208 17.0137C70.2953 19.8593 71.8367 23.4167 72.1901 27.3138H68.8631V30.7278H89.3472C92.1706 30.7278 94.4682 33.0255 94.4682 35.8489V54.6054L91.0542 55.7969V52.9172H87.6402V56.985L25.9029 78.5206L19.3599 77.9146V37.5541H32.1625C34.5164 37.5541 36.43 39.4694 36.43 41.8217C36.43 46.0568 39.8764 49.5032 44.1115 49.5032H62.8886C67.1237 49.5032 70.5701 46.0568 70.5701 41.8217C70.5701 39.4694 72.4837 37.5541 74.8376 37.5541H87.6402V49.5032H91.0542V34.1401H74.8376C70.6025 34.1401 67.1561 37.5866 67.1561 41.8217C67.1561 44.1739 65.2425 46.0892 62.8886 46.0892H44.1115C41.7575 46.0892 39.844 44.1739 39.844 41.8217C39.844 37.5866 36.3975 34.1401 32.1625 34.1401H15.9459V77.5988L12.5319 77.283V35.8471ZM17.6529 102.42C14.9951 102.42 12.8306 100.379 12.5814 97.7859L62.6411 102.42H17.6529ZM97.8822 102.255L9.11787 94.0356V80.3932L17.6529 81.1835V87.0574H21.0669V81.501L26.1879 81.9756V85.3503H29.602V82.2914L34.723 82.7659V88.7644H38.137V83.0817L43.258 83.5563V87.0574H46.672V83.8721L51.793 84.3466V90.4714H55.2071V84.6624L60.3281 85.137V88.7644H63.7421V85.4528L68.8631 85.9273V92.1784H72.2771V86.2431L77.3981 86.7177V90.4714H80.8121V87.0334L85.9332 87.508V93.8854H89.3472V87.8238L97.8822 88.6141V102.255ZM94.4682 84.869L91.0542 84.5532V76.3391L94.4682 75.2005V84.869Z" fill="white"/>
</svg>
