<svg width="106" height="106" viewBox="0 0 106 106" fill="none" xmlns="http://www.w3.org/2000/svg">
<g clip-path="url(#clip0_4519_3514)">
<path d="M43.8425 70.5153H39.1983C36.5599 70.5153 34.1113 69.2038 32.651 67.01L31.0591 64.6229L33.9044 62.7266L35.4963 65.1137C36.3222 66.3551 37.7073 67.0955 39.1983 67.0955H43.8425C44.1349 67.0955 44.4273 67.0664 44.7128 67.0083L50.465 65.8592C50.9421 65.7618 51.2909 65.3377 51.2909 64.8504V56.8342H54.7108V64.8504C54.7108 66.9604 53.2077 68.7969 51.137 69.2124L45.3848 70.3614C44.8821 70.464 44.3623 70.5153 43.8425 70.5153Z" fill="#D3A221"/>
<path d="M44.7077 85.9047H39.1983C36.5599 85.9047 34.1113 84.5932 32.651 82.3994L31.0591 80.0123L33.9044 78.116L35.4963 80.5031C36.3222 81.7445 37.7073 82.4849 39.1983 82.4849H44.7077C45.3951 82.4849 46.0859 82.3225 46.6981 82.0164L50.7232 80.0021C51.0721 79.826 51.2909 79.4737 51.2909 79.0839V72.2253H54.7108V79.0839C54.7108 80.7767 53.7686 82.3019 52.2536 83.0611L48.2267 85.0754C47.1426 85.6175 45.9252 85.9047 44.7077 85.9047Z" fill="#D3A221"/>
<path d="M66.8052 70.5153H62.161C61.6412 70.5153 61.1231 70.464 60.617 70.3614L54.8682 69.2124C52.7958 68.7969 51.2927 66.9621 51.2927 64.8504V56.8342H54.7126V64.8504C54.7126 65.3377 55.0614 65.7618 55.5402 65.8592L61.2889 67.0083C61.5762 67.0664 61.8686 67.0955 62.161 67.0955H66.8052C68.2962 67.0955 69.6813 66.3534 70.5072 65.1137L72.0991 62.7266L74.9444 64.6229L73.3525 67.01C71.8905 69.2038 69.4436 70.5153 66.8052 70.5153Z" fill="#D3A221"/>
<path d="M66.8052 85.9047H61.2958C60.0783 85.9047 58.8609 85.6175 57.7751 85.0754L53.7482 83.0611C52.2315 82.3019 51.291 80.7767 51.291 79.0839V72.2253H54.7109V79.0839C54.7109 79.4754 54.9297 79.8277 55.2803 80.0021L59.3054 82.0164C59.9176 82.3242 60.6084 82.4849 61.2958 82.4849H66.8052C68.2962 82.4849 69.6813 81.7428 70.5072 80.5031L72.0991 78.116L74.9444 80.0123L73.3525 82.3994C71.8905 84.5932 69.4436 85.9047 66.8052 85.9047Z" fill="#D3A221"/>
<path d="M14.5601 35.9783L13.6966 41.1662C12.6519 47.4313 9.64238 51.477 4.48867 53.5375L3.16861 54.0659L3.44561 55.4612C4.4938 60.7038 3.41313 66.0473 0.236084 71.3447L3.16861 73.1042C6.52861 67.5059 7.82473 61.8101 7.03133 56.152C11.2429 54.1206 14.2079 50.8102 15.8853 46.2737L22.2873 59.0794L23.922 68.8892L22.2411 94.1209L18.8914 104.172L22.1334 105.254L25.555 94.9946L27.3641 68.7199L25.6199 58.2654L14.5601 35.9783Z" fill="#FEFEFE"/>
<path d="M12.9852 3.48979L10.9418 0.74707C4.60825 5.4733 1.03109 13.1406 0 24.1867L3.40617 24.5048C4.33979 14.4761 7.47408 7.60216 12.9852 3.48979Z" fill="#FEFEFE"/>
<path d="M102.554 55.4612L102.833 54.0659L101.513 53.5375C96.3611 51.477 93.3499 47.4313 92.3051 41.1662L91.4399 35.98L80.5391 57.7815L78.6394 68.7199L80.363 94.5672L83.8684 105.254L87.1087 104.172L83.7589 94.1209L82.0781 68.8892L83.7128 59.0794L90.1147 46.2737C91.7956 50.8102 94.7572 54.1206 98.9687 56.152C98.1753 61.8118 99.4714 67.5076 102.831 73.1042L105.764 71.3447C102.587 66.049 101.508 60.7055 102.554 55.4612Z" fill="#FEFEFE"/>
<path d="M102.596 24.5048L106 24.1867C104.972 13.1389 101.394 5.4716 95.06 0.745361L93.0166 3.48808C98.5294 7.60045 101.664 14.4761 102.596 24.5048Z" fill="#FEFEFE"/>
<path d="M87.1431 33.335L83.8361 32.4578C82.4869 37.5465 79.6673 45.3968 77.629 46.9118C74.5734 49.186 69.2282 50.5094 65.1825 50.0084C63.081 49.7451 59.5534 48.3002 55.5043 46.0465C55.0153 45.7747 54.7109 45.2514 54.7109 44.6837V38.027V38.0253H51.291V38.027V44.6837V44.6854C51.291 45.2548 50.9867 45.7764 50.4976 46.0483C46.4502 48.3019 42.921 49.7468 40.8178 50.0101C36.7823 50.518 31.4303 49.186 28.3729 46.9135C26.3347 45.3985 23.515 37.5499 22.1659 32.4595L18.8589 33.3332C19.4539 35.575 22.6019 46.8861 26.3313 49.6579C29.5733 52.0672 34.4979 53.5411 38.9574 53.5411C39.7371 53.5411 40.5048 53.4967 41.2435 53.4044C44.5232 52.9923 48.9912 50.8018 52.1597 49.0372C52.4726 48.8645 52.7411 48.6388 53.0027 48.4079C53.2643 48.6371 53.531 48.8628 53.8423 49.0355C57.0125 50.8018 61.4788 52.9923 64.7567 53.4026C65.4988 53.4967 66.2649 53.5411 67.0446 53.5411C71.5058 53.5411 76.4304 52.0672 79.6707 49.6596C83.4017 46.8895 86.5497 35.5767 87.1431 33.335Z" fill="#FEFEFE"/>
<path d="M14.9602 28.8924C17.0668 26.4814 18.1372 23.4822 18.5527 22.0835C25.9157 17.9215 28.8413 9.87973 28.9644 9.5309L25.7412 8.38525C25.7139 8.4622 22.9797 15.9825 16.311 19.4057L15.5997 19.7716L15.4235 20.5514C15.415 20.5873 14.6062 24.0995 12.385 26.6421L14.9602 28.8924Z" fill="#FEFEFE"/>
<path d="M47.9497 10.6697C41.9393 10.3961 36.801 7.50466 36.7497 7.47388L35.05 10.4406C35.2877 10.5774 40.9322 13.7732 47.7924 14.0862L47.9497 10.6697Z" fill="#FEFEFE"/>
<path d="M87.4508 22.0835C87.8663 23.4805 88.9384 26.4814 91.0399 28.8907L93.6168 26.6421C91.4144 24.12 90.5834 20.5839 90.5748 20.548L90.397 19.7699L89.6908 19.4057C83.0597 16.003 80.2879 8.45878 80.2589 8.38184L77.0374 9.53091C77.1622 9.88144 80.0879 17.9215 87.4508 22.0835Z" fill="#FEFEFE"/>
<path d="M70.9517 10.4406L69.2486 7.47559C69.199 7.50294 64.0966 10.3944 58.052 10.6697L58.2093 14.0862C65.0712 13.7732 70.7157 10.5774 70.9517 10.4406Z" fill="#FEFEFE"/>
<path d="M54.7057 31.1873H51.2859V34.6071H54.7057V31.1873Z" fill="#FEFEFE"/>
<path d="M75.3187 97.9991L74.2483 96.4722C74.0773 96.5919 70.0624 99.4474 68.479 104.169L71.721 105.258C72.9351 101.64 76.16 99.3124 76.2113 99.2747L76.2147 99.2713L75.3187 97.9991Z" fill="#FEFEFE"/>
<path d="M31.7533 96.4722L29.7869 99.2713C29.8211 99.2953 33.0648 101.628 34.2806 105.256L37.5226 104.17C35.9409 99.4474 31.9243 96.5919 31.7533 96.4722Z" fill="#FEFEFE"/>
</g>
<defs>
<clipPath id="clip0_4519_3514">
<rect width="106" height="106" fill="white" transform="translate(0 0.00146484)"/>
</clipPath>
</defs>
</svg>
