<svg width="106" height="106" viewBox="0 0 106 106" fill="none" xmlns="http://www.w3.org/2000/svg">
<g clip-path="url(#clip0_4519_3534)">
<path d="M22.2258 64.9686C22.2258 78.4237 30.9212 89.8615 42.9762 94.0331H63.0239C75.0788 89.8615 83.7742 78.4237 83.7742 64.9686C83.7742 51.5134 75.0788 40.0757 63.0239 35.9041H42.9762C30.9212 40.0757 22.2258 51.5134 22.2258 64.9686Z" fill="#D3A221"/>
<path d="M70.0969 13.3636C72.0818 12.6558 73.5162 10.7751 73.5162 8.54912V5.12976C73.5162 2.30196 71.215 0.000732422 68.3872 0.000732422H37.613C34.7852 0.000732422 32.484 2.30196 32.484 5.12976V8.54912C32.484 10.7751 33.9184 12.6558 35.9033 13.3636V18.0071L15.3872 35.1038V97.4523C15.3872 102.166 19.222 106.001 23.9356 106.001H82.0646C86.7782 106.001 90.613 102.166 90.613 97.4523V35.1038L70.0969 18.0071V13.3636ZM66.6775 17.0975H39.3227V13.6782H66.6775V17.0975ZM35.9033 5.12976C35.9033 4.18773 36.6693 3.42009 37.613 3.42009H68.3872C69.331 3.42009 70.0969 4.18773 70.0969 5.12976V8.54912C70.0969 9.49115 69.331 10.2588 68.3872 10.2588H37.613C36.6693 10.2588 35.9033 9.49115 35.9033 8.54912V5.12976ZM87.1937 37.6136V92.3233H18.8066V37.6136H87.1937ZM82.0646 102.581H23.9356C21.1078 102.581 18.8066 100.28 18.8066 97.4523V95.7427H87.1937V97.4523C87.1937 100.28 84.8924 102.581 82.0646 102.581ZM84.1812 34.1943H21.819L38.2319 20.5169H67.7683L84.1812 34.1943Z" fill="#FEFEFE"/>
<path d="M33.6139 72.9184L44.9713 82.2122C47.5495 84.3219 50.8064 85.4845 54.1386 85.4845C59.3206 85.4845 64.1385 82.6892 66.7098 78.1893L75.8207 62.2449C76.549 60.9678 76.9354 59.5145 76.9354 58.0459C76.9354 53.3785 73.1382 49.5813 68.4708 49.5813H66.3833C62.7759 49.5813 59.8386 52.5168 59.8386 56.1277C59.8386 57.8749 60.5191 59.5179 61.7552 60.7557L62.3314 61.3319L53.5641 67.5945L48.406 58.3092C46.5869 55.0335 43.13 53.0007 39.3841 53.0007C33.6943 53.0007 29.0645 57.6305 29.0645 63.322C29.0645 67.0576 30.7228 70.5556 33.6139 72.9184ZM39.3841 56.42C41.8887 56.42 44.2002 57.7792 45.4175 59.9693L51.2903 70.5402V75.2265H54.7096V70.9779L67.604 61.7679L64.1727 58.34C63.5828 57.7467 63.258 56.962 63.258 56.1277C63.258 54.4026 64.6599 53.0007 66.3833 53.0007H68.4708C71.2525 53.0007 73.5161 55.2643 73.5161 58.0459C73.5161 58.9213 73.2853 59.7881 72.851 60.5489L63.7401 76.4933C61.7757 79.9298 58.0965 82.0652 54.1386 82.0652C51.5929 82.0652 49.1053 81.1778 47.134 79.5656L35.7766 70.2718C33.684 68.5604 32.4838 66.0267 32.4838 63.322C32.4838 59.5162 35.58 56.42 39.3841 56.42Z" fill="#FEFEFE"/>
<path d="M94.0322 56.4202H106V59.8395H94.0322V56.4202Z" fill="#FEFEFE"/>
<path d="M94.0322 49.5813H102.581V53.0007H94.0322V49.5813Z" fill="#FEFEFE"/>
<path d="M94.0322 42.7427H106V46.162H94.0322V42.7427Z" fill="#FEFEFE"/>
<path d="M94.0322 63.2588H100.871V66.6781H94.0322V63.2588Z" fill="#FEFEFE"/>
<path d="M94.0322 70.0974H106V73.5168H94.0322V70.0974Z" fill="#FEFEFE"/>
<path d="M94.0322 76.9363H100.871V80.3556H94.0322V76.9363Z" fill="#FEFEFE"/>
<path d="M94.0322 83.7749H106V87.1943H94.0322V83.7749Z" fill="#FEFEFE"/>
<path d="M0 56.4202H11.9677V59.8395H0V56.4202Z" fill="#FEFEFE"/>
<path d="M3.41943 49.5813H11.9678V53.0007H3.41943V49.5813Z" fill="#FEFEFE"/>
<path d="M0 42.7427H11.9677V46.162H0V42.7427Z" fill="#FEFEFE"/>
<path d="M5.12915 63.2588H11.9679V66.6781H5.12915V63.2588Z" fill="#FEFEFE"/>
<path d="M0 70.0974H11.9677V73.5168H0V70.0974Z" fill="#FEFEFE"/>
<path d="M5.12915 76.9363H11.9679V80.3556H5.12915V76.9363Z" fill="#FEFEFE"/>
<path d="M0 83.7749H11.9677V87.1943H0V83.7749Z" fill="#FEFEFE"/>
</g>
<defs>
<clipPath id="clip0_4519_3534">
<rect width="106" height="106" fill="white" transform="translate(0 0.000732422)"/>
</clipPath>
</defs>
</svg>
