<svg width="106" height="106" viewBox="0 0 106 106" fill="none" xmlns="http://www.w3.org/2000/svg">
<path d="M73.5161 85.8206L70.3703 81.1019C66.4911 75.2822 59.9977 71.8064 53 71.8064C46.0023 71.8064 39.509 75.2822 35.6297 81.1036L32.4839 85.8206V90.6128H73.5161V85.8206Z" fill="#D3A221"/>
<path d="M92.3226 89.2178V68.3871H88.9032V88.9032H85.4839V68.3871H82.0645V88.9032H75.2258V77.474C75.2258 71.1585 72.7673 65.2174 68.2982 60.7517C66.1508 58.6026 64.9677 55.7475 64.9677 52.7094C64.9677 49.9961 65.9388 47.3683 67.7049 45.3099C72.5553 39.6525 75.2258 32.4343 75.2258 24.9801V17.0968H82.0645V37.6129H85.4839V17.0968H88.9032V37.6129H92.3226V16.7822C94.3075 16.0744 95.7419 14.1937 95.7419 11.9677C95.7419 9.13994 93.4407 6.83871 90.6129 6.83871H88.9032V0H17.0968V6.83871H15.3871C12.5593 6.83871 10.2581 9.13994 10.2581 11.9677C10.2581 14.1937 11.6925 16.0744 13.6774 16.7822V37.6129H17.0968V17.0968H20.5161V37.6129H23.9355V17.0968H30.7742V24.9801C30.7742 32.4326 33.4447 39.6525 38.2933 45.3082C40.0612 47.3683 41.0323 49.9961 41.0323 52.7094C41.0323 55.7475 39.8492 58.6026 37.7018 60.7517C33.2327 65.2174 30.7742 71.1585 30.7742 77.474V88.9032H23.9355V68.3871H20.5161V88.9032H17.0968V68.3871H13.6774V89.2178C11.6925 89.9256 10.2581 91.8063 10.2581 94.0323C10.2581 96.8601 12.5593 99.1613 15.3871 99.1613H17.0968V106H88.9032V99.1613H90.6129C93.4407 99.1613 95.7419 96.8601 95.7419 94.0323C95.7419 91.8063 94.3075 89.9256 92.3226 89.2178ZM15.3871 10.2581H23.9355V6.83871H20.5161V3.41935H85.4839V6.83871H27.3548V10.2581H90.6129C91.5566 10.2581 92.3226 11.024 92.3226 11.9677C92.3226 12.9115 91.5566 13.6774 90.6129 13.6774H15.3871C14.4433 13.6774 13.6774 12.9115 13.6774 11.9677C13.6774 11.024 14.4433 10.2581 15.3871 10.2581ZM71.8064 17.0968V24.9801C71.8064 25.7751 71.7671 26.5667 71.7004 27.3548H34.2995C34.2329 26.5684 34.1935 25.7751 34.1935 24.9801V17.0968H71.8064ZM34.1935 77.474C34.1935 72.0714 36.2964 66.9903 40.1193 63.1692C42.9129 60.3756 44.4516 56.6621 44.4516 52.7094C44.4516 49.1823 43.1882 45.7629 40.8903 43.0822C37.8488 39.5346 35.7938 35.2895 34.8295 30.7742H71.1687C70.2045 35.2895 68.1494 39.5363 65.1062 43.0839C62.8118 45.7629 61.5484 49.1823 61.5484 52.7094C61.5484 56.6621 63.0871 60.3756 65.8807 63.1692C69.7035 66.992 71.8064 72.0714 71.8064 77.474V88.9032H34.1935V77.474ZM90.6129 95.7419H82.0645V99.1613H85.4839V102.581H20.5161V99.1613H78.6452V95.7419H15.3871C14.4433 95.7419 13.6774 94.976 13.6774 94.0323C13.6774 93.0885 14.4433 92.3226 15.3871 92.3226H90.6129C91.5566 92.3226 92.3226 93.0885 92.3226 94.0323C92.3226 94.976 91.5566 95.7419 90.6129 95.7419Z" fill="#FEFEFE"/>
<path d="M54.7096 34.1936H51.2903V37.613H54.7096V34.1936Z" fill="#FEFEFE"/>
<path d="M54.7096 41.0322H51.2903V44.4516H54.7096V41.0322Z" fill="#FEFEFE"/>
<path d="M54.7096 47.8708H51.2903V51.2902H54.7096V47.8708Z" fill="#FEFEFE"/>
<path d="M54.7096 54.7097H51.2903V58.1291H54.7096V54.7097Z" fill="#FEFEFE"/>
<path d="M54.7096 61.5483H51.2903V64.9677H54.7096V61.5483Z" fill="#FEFEFE"/>
<path d="M27.3548 53.0001C27.3548 50.0543 25.8572 47.4522 23.5833 45.9134C24.8519 44.6722 25.6452 42.9454 25.6452 41.0323C25.6452 37.2608 22.578 34.1936 18.8064 34.1936C15.0349 34.1936 11.9677 37.2608 11.9677 41.0323C11.9677 42.9454 12.761 44.6722 14.0296 45.9134C11.7557 47.4522 10.2581 50.0543 10.2581 53.0001C10.2581 55.9458 11.7557 58.548 14.0296 60.0867C12.761 61.3279 11.9677 63.0547 11.9677 64.9678C11.9677 68.7393 15.0349 71.8065 18.8064 71.8065C22.578 71.8065 25.6452 68.7393 25.6452 64.9678C25.6452 63.0547 24.8519 61.3279 23.5833 60.0867C25.8572 58.548 27.3548 55.9458 27.3548 53.0001Z" fill="#D3A221"/>
<path d="M91.9705 60.0867C94.2444 58.548 95.742 55.9458 95.742 53.0001C95.742 50.0543 94.2444 47.4522 91.9705 45.9134C93.2391 44.6722 94.0324 42.9454 94.0324 41.0323C94.0324 37.2608 90.9652 34.1936 87.1937 34.1936C83.4221 34.1936 80.3549 37.2608 80.3549 41.0323C80.3549 42.9454 81.1482 44.6722 82.4168 45.9134C80.1429 47.4522 78.6453 50.0543 78.6453 53.0001C78.6453 55.9458 80.1429 58.548 82.4168 60.0867C81.1482 61.3279 80.3549 63.0547 80.3549 64.9678C80.3549 68.7393 83.4221 71.8065 87.1937 71.8065C90.9652 71.8065 94.0324 68.7393 94.0324 64.9678C94.0324 63.0547 93.2391 61.3279 91.9705 60.0867Z" fill="#D3A221"/>
</svg>
