<svg width="106" height="106" viewBox="0 0 106 106" fill="none" xmlns="http://www.w3.org/2000/svg">
<path d="M84.4688 8.28125H74.5312V16.5625H84.4688V8.28125Z" fill="#D3A221"/>
<path d="M79.5 41.4062C71.28 41.4062 64.5938 48.0925 64.5938 56.3125V89.4375H94.4062V56.3125C94.4062 48.0925 87.72 41.4062 79.5 41.4062Z" fill="#D3A221"/>
<path d="M18.2188 86.125V91.0938C18.2188 92.9206 19.7044 94.4062 21.5312 94.4062H31.4688C33.2956 94.4062 34.7812 92.9206 34.7812 91.0938V86.125H18.2188Z" fill="#D3A221"/>
<path d="M26.5 62.9375C19.1943 62.9375 13.25 56.9932 13.25 49.6875V33.125C13.25 25.8193 19.1943 19.875 26.5 19.875C33.8057 19.875 39.75 25.8193 39.75 33.125V49.6875C39.75 56.9932 33.8057 62.9375 26.5 62.9375Z" fill="#D3A221"/>
<path d="M98.7424 28.1562H94.4064V21.5312H91.0939V8.28125C91.0939 4.62756 88.1225 1.65625 84.4689 1.65625H74.5314C70.8777 1.65625 67.9064 4.62756 67.9064 8.28125V21.5312H64.5939V28.1562H60.2578L54.6365 39.3989L57.732 99.7659C57.9341 102.333 60.112 104.344 62.6875 104.344H96.3144C98.8898 104.344 101.066 102.333 101.272 99.7195L104.342 39.8345L104.364 39.3989L98.7424 28.1562ZM87.7814 28.1562V24.8438H91.0939V28.1562H87.7814ZM77.8439 24.8438V28.1562H74.5314V24.8438H77.8439ZM81.1564 24.8438H84.4689V28.1562H81.1564V24.8438ZM74.5314 4.96875H84.4689C86.2957 4.96875 87.7814 6.45441 87.7814 8.28125V14.9062H71.2189V8.28125C71.2189 6.45441 72.7045 4.96875 74.5314 4.96875ZM71.2189 18.2188H87.7814V21.5312H71.2189V18.2188ZM67.9064 24.8438H71.2189V28.1562H67.9064V24.8438ZM62.3049 31.4688H96.6953L100.008 38.0938H96.0626V41.4062H100.945L98.5669 87.7812H60.435L58.055 41.4062H92.7501V38.0938H58.9924L62.3049 31.4688ZM96.3127 101.031H62.6875C61.8279 101.031 61.1041 100.36 61.0395 99.5506L60.6039 91.0938H98.3946L97.964 99.5058C97.8961 100.36 97.1723 101.031 96.3127 101.031Z" fill="#FEFEFE"/>
<path d="M76.1875 56.3125C78.9269 56.3125 81.1562 54.0832 81.1562 51.3438C81.1562 48.6043 78.9269 46.375 76.1875 46.375C73.4481 46.375 71.2188 48.6043 71.2188 51.3438C71.2188 54.0832 73.4481 56.3125 76.1875 56.3125ZM76.1875 49.6875C77.1017 49.6875 77.8438 50.4312 77.8438 51.3438C77.8438 52.2563 77.1017 53 76.1875 53C75.2733 53 74.5312 52.2563 74.5312 51.3438C74.5312 50.4312 75.2733 49.6875 76.1875 49.6875Z" fill="#FEFEFE"/>
<path d="M82.8125 59.625V62.9375C83.7267 62.9375 84.4688 63.6812 84.4688 64.5938C84.4688 65.5063 83.7267 66.25 82.8125 66.25C81.8983 66.25 81.1562 65.5063 81.1562 64.5938H77.8438C77.8438 67.3332 80.0731 69.5625 82.8125 69.5625C85.5519 69.5625 87.7812 67.3332 87.7812 64.5938C87.7812 61.8543 85.5519 59.625 82.8125 59.625Z" fill="#FEFEFE"/>
<path d="M74.5312 69.5625H71.2188V72.875H74.5312V69.5625Z" fill="#FEFEFE"/>
<path d="M86.125 76.1875H82.8125V79.5H86.125V76.1875Z" fill="#FEFEFE"/>
<path d="M77.8438 81.1562H74.5312V84.4688H77.8438V81.1562Z" fill="#FEFEFE"/>
<path d="M1.66453 13.4156L8.109 77.8603C6.36497 77.9531 4.96875 79.389 4.96875 81.1562V84.4688C4.96875 86.2956 6.45441 87.7812 8.28125 87.7812V99.375C8.28125 102.114 10.5106 104.344 13.25 104.344H39.75C42.4894 104.344 44.7188 102.114 44.7188 99.375V87.7812C46.5456 87.7812 48.0312 86.2956 48.0312 84.4688V81.1562C48.0312 79.389 46.635 77.9531 44.891 77.8603L51.3438 13.25V1.65625H1.65625L1.66453 13.4156ZM38.0938 11.5938V4.96875H41.4062V11.5938H38.0938ZM34.7812 11.5938H31.4688V4.96875H34.7812V11.5938ZM28.1562 11.5938H24.8438V4.96875H28.1562V11.5938ZM21.5312 11.5938H18.2188V4.96875H21.5312V11.5938ZM14.9062 11.5938H11.5938V4.96875H14.9062V11.5938ZM47.8573 14.9062L42.2261 71.2188H36.4375V74.5312H41.8948L41.5636 77.8438H11.4364L11.1052 74.5312H33.125V71.2188H10.7723L5.13437 14.9062H47.8573ZM41.4062 99.375C41.4062 100.288 40.6642 101.031 39.75 101.031H13.25C12.3357 101.031 11.5938 100.288 11.5938 99.375V87.7812H41.4062V99.375ZM8.28125 84.4688V81.1562H44.7188L44.7204 84.4688H8.28125ZM48.0379 11.5938H44.7188V4.96875H48.0329L48.0379 11.5938ZM8.28125 4.96875V11.5938H4.96875V4.96875H8.28125Z" fill="#FEFEFE"/>
<path d="M26.5 56.3125C30.1537 56.3125 33.125 53.3412 33.125 49.6875C33.125 48.2648 32.6546 46.8536 31.8 45.7125L26.5 38.6453L21.1983 45.7125C20.3454 46.8536 19.875 48.2648 19.875 49.6875C19.875 53.3412 22.8463 56.3125 26.5 56.3125ZM23.8483 47.7L26.5 44.1672L29.15 47.7C29.5773 48.2697 29.8125 48.9753 29.8125 49.6875C29.8125 51.5143 28.3268 53 26.5 53C24.6732 53 23.1875 51.5143 23.1875 49.6875C23.1875 48.9753 23.4227 48.2697 23.8483 47.7Z" fill="#FEFEFE"/>
<path d="M28.1562 26.5H24.8438V29.8125H28.1562V26.5Z" fill="#FEFEFE"/>
<path d="M28.1562 33.125H24.8438V36.4375H28.1562V33.125Z" fill="#FEFEFE"/>
</svg>
