<svg width="82" height="104" viewBox="0 0 82 104" fill="none" xmlns="http://www.w3.org/2000/svg">
<path opacity="0.3" d="M4.87688 103.999L4.83871 88.6622L44.1094 51.415C47.2126 48.591 49.4903 46.0592 50.9427 43.8195C52.395 41.5798 53.3618 39.5348 53.8432 37.6847C54.4218 35.8345 54.7091 34.1304 54.7052 32.5723C54.695 28.4824 53.278 25.3663 50.454 23.224C47.727 20.9843 43.6907 19.8644 38.3451 19.8644C34.0685 19.8644 30.0857 20.6921 26.3964 22.3476C22.8044 24.003 19.7492 26.5835 17.2309 30.0891L0 18.988C3.8732 13.1453 9.30453 8.51986 16.294 5.11162C23.2834 1.70339 31.3463 -0.000732422 40.4825 -0.000732422C48.0636 -0.000732422 54.6759 1.26518 60.3194 3.79701C66.0599 6.23148 70.4908 9.68841 73.6122 14.1678C76.8307 18.6472 78.4477 24.003 78.4632 30.2352C78.4715 33.5461 78.0423 36.8569 77.1758 40.1678C76.4063 43.3813 74.7625 46.7895 72.2444 50.3925C69.8235 53.9955 66.2374 58.0367 61.4861 62.5161L28.9058 93.3363L24.3648 84.7184H81.952L82 103.999H4.87688Z" fill="#D3A221"/>
</svg>
