<svg width="82" height="104" viewBox="0 0 82 104" fill="none" xmlns="http://www.w3.org/2000/svg">
<path opacity="0.3" d="M39.0274 104C31.9188 104 24.8565 103.074 17.8407 101.224C10.8246 99.2767 4.87767 96.5501 0 93.0445L9.15711 74.9321C13.0593 77.7561 17.593 79.9958 22.7582 81.6512C27.9234 83.3066 33.1352 84.1343 38.3936 84.1343C44.3337 84.1343 49.005 82.9658 52.4074 80.6287C55.8098 78.2916 57.5059 75.0782 57.4957 70.9883C57.486 67.0931 55.969 64.0257 52.9447 61.786C49.9204 59.5463 45.0486 58.4265 38.3295 58.4265H27.5205L27.4815 42.7973L55.8843 10.5164L58.5346 18.9883H4.92771L4.88035 -0.000488281H76.4536L76.4918 15.3366L48.2352 47.6175L36.2405 40.7523H43.1057C55.6675 40.7523 65.169 43.5763 71.61 49.2242C78.0511 54.8722 81.2827 62.1269 81.3048 70.9883C81.3191 76.7336 79.8232 82.1381 76.8171 87.2018C73.8108 92.1681 69.1954 96.2093 62.9709 99.3254C56.7464 102.441 48.7653 104 39.0274 104Z" fill="#D3A221"/>
</svg>
