<svg width="229" height="229" viewBox="0 0 229 229" fill="none" xmlns="http://www.w3.org/2000/svg">
<g opacity="0.4" clip-path="url(#clip0_5007_337)">
<path d="M129.466 205.699L37.2685 176.25C33.831 175.081 30.9968 172.598 29.3866 169.344C27.7763 166.09 27.5212 162.331 28.6772 158.889L65.0246 45.0933C66.0749 41.6151 68.4616 38.6952 71.6614 36.9739C74.8611 35.2526 78.6129 34.8703 82.0941 35.9108L91.6492 38.9628C92.3671 39.1921 92.9645 39.6972 93.31 40.367C93.6555 41.0368 93.7208 41.8164 93.4915 42.5343C92.9458 44.0865 93.0374 45.7916 93.7461 47.2765C94.4549 48.7613 95.723 49.9049 97.273 50.4569L153.489 68.4127C154.239 68.6517 155.031 68.7336 155.815 68.6534C156.598 68.5732 157.357 68.3326 158.044 67.9465C159.539 67.1365 160.659 65.7736 161.163 64.149C161.392 63.4311 161.897 62.8337 162.567 62.4882C163.237 62.1428 164.016 62.0775 164.734 62.3068L174.292 65.3597C177.732 66.5297 180.567 69.016 182.176 72.2734C183.785 75.5307 184.036 79.2933 182.875 82.7359L167.918 129.564C167.783 129.985 167.553 130.368 167.244 130.684C166.936 131 166.558 131.24 166.141 131.384C165.723 131.528 165.278 131.574 164.84 131.516C164.403 131.458 163.984 131.299 163.619 131.052C159.828 128.55 155.518 126.945 151.014 126.358C147.037 125.844 142.997 126.143 139.138 127.236C135.28 128.33 131.684 130.196 128.568 132.721C125.452 135.246 122.882 138.378 121.012 141.926C119.143 145.474 118.013 149.364 117.692 153.362C117.371 157.359 117.865 161.38 119.144 165.181C120.423 168.982 122.461 172.484 125.133 175.474C127.806 178.464 131.058 180.88 134.692 182.576C138.326 184.272 142.267 185.212 146.276 185.339C146.717 185.349 147.151 185.462 147.541 185.669C147.932 185.875 148.269 186.17 148.526 186.53C148.782 186.89 148.951 187.304 149.02 187.741C149.088 188.177 149.054 188.624 148.919 189.045L146.531 196.524C145.479 200 143.093 202.917 139.894 204.637C136.696 206.357 132.946 206.739 129.466 205.699ZM80.3649 41.3245C78.3195 40.7422 76.1268 40.9937 74.2665 42.0241C72.4062 43.0544 71.0297 44.7798 70.4383 46.8225L34.0944 160.608C33.3966 162.613 33.521 164.814 34.4403 166.729C35.3597 168.643 36.9993 170.116 39.0011 170.826L131.199 200.274C133.241 200.856 135.431 200.607 137.289 199.579C139.148 198.552 140.524 196.831 141.118 194.792L142.419 190.718C137.323 190.009 132.444 188.195 128.122 185.403C123.801 182.611 120.142 178.908 117.402 174.554C114.662 170.199 112.906 165.299 112.259 160.195C111.611 155.091 112.087 149.907 113.653 145.006C116.158 137.143 121.339 130.407 128.297 125.969C135.254 121.531 143.547 119.673 151.733 120.717C155.872 121.254 159.885 122.512 163.591 124.433L177.462 81.0067C178.165 78.9999 178.044 76.7963 177.126 74.8784C176.207 72.9604 174.567 71.4844 172.563 70.7734L165.4 68.4857C164.286 70.3637 162.682 71.9032 160.759 72.9394C159.4 73.6952 157.899 74.1639 156.351 74.3164C154.803 74.469 153.241 74.3022 151.76 73.8264L95.5438 55.8705C93.0219 55.0293 90.858 53.361 89.4029 51.136C87.9479 48.911 87.2869 46.2599 87.5272 43.6122L80.3649 41.3245Z" fill="#D3A221"/>
<path d="M124.564 182.447L54.543 160.081C51.9922 159.32 49.8472 157.579 48.5783 155.239C47.3094 152.899 47.02 150.151 47.7736 147.598L73.1467 68.1602C74.0127 65.6428 75.8413 63.5713 78.2318 62.3996C80.6223 61.228 83.3798 61.0517 85.9 61.9095L156.116 84.337C158.667 85.0984 160.813 86.8404 162.082 89.1811C163.351 91.5218 163.641 94.2702 162.887 96.824L154.079 124.399C153.877 125.032 153.46 125.574 152.899 125.932C152.339 126.289 151.671 126.438 151.012 126.354C143.478 125.39 135.863 127.363 129.746 131.864L129.353 132.159C124.668 135.445 121.183 140.169 119.426 145.615C119.383 145.855 119.308 146.088 119.205 146.308L119.072 146.725C117.352 152.128 117.217 157.91 118.683 163.387C120.149 168.864 123.155 173.805 127.345 177.625C127.825 178.062 128.142 178.649 128.243 179.29C128.343 179.931 128.221 180.588 127.897 181.15C127.573 181.712 127.066 182.146 126.461 182.38C125.855 182.615 125.188 182.634 124.57 182.437L124.564 182.447ZM84.1708 67.3232C83.0863 66.9233 81.8876 66.9687 80.8365 67.4495C79.7853 67.9302 78.9671 68.8074 78.5604 69.8894L53.1873 149.327C52.8923 150.444 53.0511 151.633 53.629 152.633C54.2069 153.634 55.1571 154.365 56.2722 154.668L117.136 174.108C114.509 169.788 112.839 164.955 112.238 159.935C111.637 154.915 112.119 149.824 113.652 145.006C113.723 144.784 113.793 144.565 113.876 144.352C113.913 144.188 113.955 144.056 113.985 143.964C116.104 137.317 120.339 131.547 126.044 127.531L126.441 127.222C133.062 122.374 141.168 119.988 149.36 120.478L157.468 95.0931C157.763 93.9752 157.604 92.786 157.026 91.7848C156.448 90.7837 155.497 90.0518 154.381 89.749L84.1708 67.3232Z" fill="#D3A221"/>
<path d="M131.772 107.31L100.852 97.434C100.134 97.2047 99.5364 96.6997 99.1909 96.0299C98.8454 95.3601 98.7801 94.5805 99.0094 93.8626C99.2387 93.1447 99.7438 92.5473 100.414 92.2018C101.083 91.8563 101.863 91.791 102.581 92.0204L133.501 101.897C134.219 102.126 134.816 102.631 135.162 103.301C135.507 103.971 135.573 104.75 135.343 105.468C135.114 106.186 134.609 106.783 133.939 107.129C133.269 107.474 132.49 107.54 131.772 107.31Z" fill="#D3A221"/>
<path d="M110.533 125.318L93.6661 119.931C92.9482 119.701 92.3508 119.196 92.0053 118.526C91.6599 117.857 91.5946 117.077 91.8239 116.359C92.0532 115.641 92.5583 115.044 93.2281 114.698C93.8978 114.353 94.6774 114.288 95.3953 114.517L112.262 119.904C112.98 120.134 113.577 120.639 113.922 121.308C114.268 121.978 114.333 122.758 114.104 123.476C113.875 124.194 113.37 124.791 112.7 125.136C112.03 125.482 111.25 125.547 110.533 125.318Z" fill="#D3A221"/>
<path d="M103.357 147.785L86.4904 142.397C85.7725 142.168 85.1751 141.663 84.8296 140.993C84.4841 140.323 84.4188 139.544 84.6481 138.826C84.8774 138.108 85.3825 137.511 86.0523 137.165C86.7221 136.82 87.5016 136.754 88.2195 136.984L105.086 142.371C105.804 142.6 106.401 143.105 106.747 143.775C107.092 144.445 107.157 145.225 106.928 145.942C106.699 146.66 106.194 147.258 105.524 147.603C104.854 147.949 104.075 148.014 103.357 147.785Z" fill="#D3A221"/>
<path d="M89.6105 93.8431L83.9884 92.0473C83.2705 91.818 82.6731 91.3129 82.3276 90.6432C81.9821 89.9734 81.9168 89.1938 82.1462 88.4759C82.3755 87.758 82.8805 87.1606 83.5503 86.8151C84.2201 86.4696 84.9997 86.4043 85.7176 86.6336L91.3397 88.4294C92.0576 88.6587 92.655 89.1638 93.0005 89.8336C93.346 90.5033 93.4113 91.2829 93.182 92.0008C92.9527 92.7187 92.4476 93.3161 91.7778 93.6616C91.108 94.0071 90.3284 94.0724 89.6105 93.8431Z" fill="#D3A221"/>
<path d="M82.425 116.34L76.8029 114.544C76.085 114.315 75.4876 113.81 75.1421 113.14C74.7966 112.47 74.7313 111.69 74.9606 110.972C75.1899 110.255 75.695 109.657 76.3648 109.312C77.0345 108.966 77.8141 108.901 78.532 109.13L84.1542 110.926C84.8721 111.155 85.4695 111.66 85.815 112.33C86.1605 113 86.2257 113.78 85.9964 114.497C85.7671 115.215 85.262 115.813 84.5922 116.158C83.9225 116.504 83.1429 116.569 82.425 116.34Z" fill="#D3A221"/>
<path d="M75.2482 138.806L69.6261 137.011C68.9082 136.781 68.3108 136.276 67.9653 135.607C67.6198 134.937 67.5545 134.157 67.7838 133.439C68.0131 132.721 68.5182 132.124 69.188 131.778C69.8578 131.433 70.6374 131.368 71.3553 131.597L76.9774 133.393C77.6953 133.622 78.2927 134.127 78.6382 134.797C78.9837 135.467 79.049 136.246 78.8197 136.964C78.5904 137.682 78.0853 138.28 77.4155 138.625C76.7457 138.97 75.9661 139.036 75.2482 138.806Z" fill="#D3A221"/>
<path d="M136.539 189.374C133.338 188.358 130.3 186.885 127.519 185.001C126.085 184.046 124.731 182.976 123.47 181.802C118.486 177.248 114.912 171.361 113.17 164.839C111.428 158.317 111.592 151.432 113.643 145C113.75 144.648 113.877 144.302 114.024 143.964C116.287 137.426 120.458 131.717 125.998 127.573L126.446 127.227C130.987 123.909 136.255 121.724 141.812 120.855C147.368 119.985 153.052 120.455 158.39 122.226C163.728 123.998 168.566 127.019 172.5 131.038C176.434 135.057 179.351 139.957 181.008 145.332C182.665 150.706 183.014 156.399 182.026 161.936C181.038 167.472 178.742 172.693 175.328 177.162C171.914 181.632 167.482 185.221 162.401 187.631C157.319 190.042 151.735 191.203 146.114 191.018C142.86 190.931 139.636 190.377 136.539 189.374ZM156.291 127.533C151.84 126.1 147.112 125.746 142.497 126.499C137.882 127.252 133.512 129.09 129.747 131.864L129.354 132.159C124.689 135.688 121.189 140.534 119.305 146.072C119.213 146.288 119.132 146.509 119.064 146.734C117.343 152.137 117.208 157.919 118.675 163.396C120.141 168.873 123.147 173.814 127.336 177.635C128.385 178.613 129.512 179.505 130.706 180.301C133.938 182.486 137.57 184.011 141.393 184.789C145.217 185.567 149.156 185.581 152.985 184.832C156.814 184.082 160.457 182.584 163.705 180.422C166.953 178.26 169.742 175.478 171.912 172.235C174.081 168.993 175.589 165.353 176.348 161.526C177.107 157.699 177.102 153.76 176.334 149.935C175.566 146.109 174.049 142.474 171.872 139.236C169.694 135.999 166.899 133.223 163.646 131.069C161.376 129.546 158.899 128.355 156.291 127.533Z" fill="#D3A221"/>
<path d="M140.909 165.987C140.192 165.757 139.594 165.252 139.249 164.582L131.596 149.747C131.266 149.079 131.212 148.308 131.445 147.6C131.677 146.892 132.179 146.304 132.841 145.963C133.503 145.621 134.273 145.553 134.985 145.774C135.697 145.994 136.293 146.486 136.646 147.142L142.994 159.452L162.722 149.275C163.392 148.929 164.172 148.863 164.891 149.092C165.609 149.321 166.207 149.826 166.553 150.496C166.9 151.166 166.965 151.946 166.736 152.664C166.508 153.382 166.003 153.981 165.333 154.327L143.079 165.806C142.747 165.977 142.385 166.081 142.012 166.112C141.64 166.143 141.265 166.101 140.909 165.987Z" fill="#D3A221"/>
<path d="M151.876 73.4611L96.1362 55.6574C93.4712 54.8708 91.1622 53.183 89.6036 50.8827C88.0451 48.5823 87.3337 45.8121 87.5912 43.0454C87.8153 41.1368 88.5038 39.3123 89.5964 37.7314C90.689 36.1506 92.1523 34.8616 93.8585 33.9773C95.2214 33.2688 96.7114 32.8375 98.2421 32.7084C99.7728 32.5793 101.314 32.755 102.776 33.2252L114.456 36.9559C115.832 34.7423 117.907 33.0507 120.352 32.1489C122.798 31.247 125.474 31.1863 127.958 31.9764L139.199 35.567C141.681 36.3626 143.827 37.9633 145.296 40.1157C146.766 42.2682 147.475 44.8493 147.312 47.4503L158.518 51.0297C161.183 51.8176 163.491 53.506 165.049 55.8066C166.607 58.1071 167.317 60.8772 167.06 63.6436C166.836 65.5513 166.148 67.3752 165.057 68.9557C163.965 70.5363 162.503 71.8256 160.799 72.7108C159.434 73.4182 157.944 73.8487 156.412 73.9775C154.881 74.1062 153.339 73.9308 151.876 73.4611ZM101.047 38.6389C100.197 38.3693 99.2984 38.2916 98.4151 38.4114C97.5317 38.5311 96.6859 38.8453 95.9386 39.3314C95.1913 39.8174 94.5612 40.4631 94.0935 41.2221C93.6259 41.981 93.3324 42.8342 93.2343 43.7203C93.1486 45.1723 93.5608 46.6102 94.4028 47.7963C95.2448 48.9824 96.4663 49.8458 97.8654 50.2437L153.605 68.0474C154.454 68.3173 155.353 68.3954 156.236 68.276C157.12 68.1565 157.965 67.8426 158.713 67.3568C159.46 66.871 160.09 66.2254 160.558 65.4666C161.025 64.7078 161.319 63.8546 161.417 62.9687C161.503 61.5169 161.091 60.0793 160.25 58.893C159.408 57.7066 158.188 56.8426 156.789 56.4434L143.209 52.1058C142.491 51.8765 141.894 51.3714 141.548 50.7016C141.203 50.0318 141.137 49.2522 141.367 48.5343C141.85 47.0159 141.711 45.3678 140.981 43.9516C140.25 42.5355 138.988 41.467 137.47 40.9807L126.229 37.3901C124.71 36.9066 123.062 37.0452 121.645 37.7755C120.229 38.5058 119.16 39.7681 118.672 41.2856C118.443 42.0035 117.938 42.6009 117.268 42.9464C116.599 43.2919 115.819 43.3572 115.101 43.1278L101.047 38.6389Z" fill="#D3A221"/>
</g>
<defs>
<clipPath id="clip0_5007_337">
<rect width="181.861" height="181.861" fill="white" transform="translate(55.334) rotate(17.7139)"/>
</clipPath>
</defs>
</svg>
