<svg width="227" height="227" viewBox="0 0 227 227" fill="none" xmlns="http://www.w3.org/2000/svg">
<g opacity="0.4" clip-path="url(#clip0_5007_350)">
<path d="M128.945 73.6367C126.782 69.14 122.807 65.7273 118.036 64.2687L103.632 59.8648C101.879 59.329 100.048 59.1003 98.2178 59.1175C94.2251 64.5449 88.4431 68.3281 81.9868 69.8676C81.7143 70.4881 81.4518 71.1146 81.2533 71.7637C79.1002 78.8064 80.3819 86.5798 84.6834 92.5527L85.4315 93.5976L86.8352 94.0268C86.8764 92.818 87.0186 91.5987 87.389 90.387L90.1003 81.5188C90.4558 80.3559 91.5163 79.5474 92.7349 79.5178C97.274 79.4032 101.724 78.2352 105.735 76.1048L106.7 75.5895L107.214 76.5571C109.345 80.5653 112.381 84.0248 116.083 86.6561C117.074 87.3613 117.502 88.6218 117.146 89.7875L114.434 98.6557C114.064 99.8673 113.5 100.958 112.858 101.983L114.262 102.412L115.463 101.966C122.37 99.4168 127.782 93.6899 129.935 86.6473C131.257 82.3254 130.904 77.7046 128.945 73.6367Z" fill="#D3A221"/>
<path d="M72.3679 62.1353L66.9588 60.4816C63.9757 59.5696 62.2914 56.4019 63.2035 53.4188L64.8572 48.0097L59.4481 46.356C56.465 45.4439 54.7807 42.2763 55.6927 39.2931L57.3464 33.884C58.2585 30.9009 61.4261 29.2166 64.4093 30.1287L69.8184 31.7824L71.4721 26.3733C72.3841 23.3902 75.5518 21.7059 78.5349 22.6179L83.944 24.2716C86.9271 25.1837 88.6114 28.3514 87.6994 31.3345L86.0457 36.7436L91.4548 38.3973C94.4379 39.3093 96.1222 42.477 95.2101 45.4601L93.5564 50.8692C92.6444 53.8523 89.4767 55.5366 86.4936 54.6246L81.0845 52.9709L79.4307 58.38C78.5187 61.3631 75.351 63.0474 72.3679 62.1353Z" fill="#D3A221"/>
<path d="M120.102 138.156C122.306 130.949 119.429 123.054 113.103 118.953L106.028 114.37L105.935 110.719C111.115 109.106 115.438 105.048 117.139 99.4822L119.851 90.614C120.563 88.2827 119.707 85.7643 117.722 84.3531C114.399 81.9887 111.626 78.8313 109.711 75.2292L107.869 71.7649L104.408 73.6051C100.804 75.5195 96.742 76.5874 92.6652 76.6895C90.2271 76.7515 88.1087 78.3603 87.3959 80.6916L84.6847 89.5598C82.983 95.1258 84.297 100.907 87.6899 105.141L85.5709 108.116L77.1432 107.959C69.6054 107.822 62.8056 112.758 60.602 119.965L57.9321 128.698L117.432 146.889L120.102 138.156ZM92.805 82.3453C97.1948 82.2354 101.564 81.2054 105.549 79.3539C107.817 83.1171 110.864 86.4143 114.441 88.9603L111.73 97.8285C109.906 103.795 103.571 107.163 97.6045 105.339C91.6383 103.515 88.2697 97.1798 90.0938 91.2136L92.805 82.3453ZM113.677 139.826L64.9949 124.943L66.0111 121.619C67.4796 116.816 72.0116 113.523 77.0344 113.615L88.4505 113.826L91.9478 108.906C93.1747 109.672 94.5065 110.307 95.9508 110.748C97.395 111.19 98.8542 111.408 100.297 111.459L100.445 117.493L110.027 123.702C114.244 126.432 116.16 131.696 114.69 136.502L113.677 139.826Z" fill="#D3A221"/>
<path d="M119.603 197.828C119.147 199.321 117.564 200.162 116.072 199.706L29.526 173.246C28.0331 172.79 27.1919 171.207 27.6483 169.715L58.5945 68.4941C60.1876 69.5224 61.8868 70.4263 63.6927 71.1647L37.1917 157.846L118.328 182.651L128.251 150.197L122.841 148.543L114.573 175.589L44.2546 154.09L69.1026 72.8158C83.7454 75.8789 98.5907 67.9878 104.237 54.1347L147.647 67.4067L137.725 99.8613L143.134 101.515L154.71 63.6513L127.665 55.3827L129.318 49.9736L159.068 59.0691C160.561 59.5255 161.402 61.1103 160.946 62.6005L158.466 70.7141L163.875 72.3678L166.355 64.2542C167.723 59.7809 165.196 55.0276 160.722 53.66L106.052 36.9457C104.057 25.8193 96.0791 16.1525 84.5469 12.6268C68.1438 7.61182 50.7163 16.8782 45.7014 33.2813C42.1756 44.8135 45.7286 56.8331 53.837 64.7092L22.2392 168.061C20.8716 172.534 23.3989 177.287 27.8723 178.655L114.418 205.115C118.891 206.482 123.644 203.955 125.012 199.482L129.146 185.959L123.737 184.305L119.603 197.828ZM123.909 48.3198L122.256 53.7289L105.89 48.7256C106.292 46.8136 106.492 44.9022 106.527 43.0056L123.909 48.3198ZM51.1105 34.935C55.2134 21.515 69.4705 13.9321 82.8932 18.0358C96.3159 22.1396 103.895 36.3986 99.7924 49.8186C95.6895 63.2385 81.4323 70.8215 68.0096 66.7177C54.587 62.614 47.0076 48.355 51.1105 34.935Z" fill="#D3A221"/>
<path d="M62.583 171.523L89.6285 179.792L87.9748 185.201L60.9293 176.933L62.583 171.523Z" fill="#D3A221"/>
<path d="M95.0381 181.446L100.447 183.1L98.7935 188.509L93.3844 186.855L95.0381 181.446Z" fill="#D3A221"/>
<path d="M51.7656 168.216L57.1747 169.87L55.521 175.279L50.1119 173.625L51.7656 168.216Z" fill="#D3A221"/>
<path d="M51.3171 150.335L110.817 168.526L115.778 152.298L56.2783 134.107L51.3171 150.335ZM85.4255 154.848L80.0164 153.194L81.6701 147.785L87.0792 149.439L85.4255 154.848ZM92.4883 151.093L97.8974 152.746L96.2437 158.155L90.8346 156.502L92.4883 151.093ZM74.6073 151.541L69.1982 149.887L70.8519 144.478L76.261 146.131L74.6073 151.541ZM107.062 161.463L101.653 159.809L103.306 154.4L108.716 156.054L107.062 161.463ZM60.0337 141.17L65.4428 142.824L63.7891 148.233L58.38 146.579L60.0337 141.17Z" fill="#D3A221"/>
<path d="M185.106 109.326L203.493 101.594C206.904 100.159 209.483 97.3041 210.566 93.7639C211.536 90.5887 211.213 87.225 209.637 84.2559C208.102 81.3645 205.423 79.1557 202.289 78.1974L201.791 78.0452C199.46 77.3325 196.949 77.3337 194.678 77.9908C193.137 76.1534 191.076 74.7692 188.766 74.0631L188.268 73.9109C185.134 72.9526 181.678 73.2861 178.754 74.8408C175.822 76.402 173.673 79.0126 172.702 82.1878C171.619 85.7307 172.161 89.5371 174.186 92.6345L185.106 109.326ZM181.45 79.8171C183.022 78.9788 184.905 78.7975 186.615 79.32L187.112 79.4722C188.822 79.9947 190.281 81.1981 191.201 82.9196L192.602 85.214L194.973 83.9514C196.545 83.1131 198.428 82.9318 200.137 83.4543L200.635 83.6065C202.344 84.1291 203.804 85.3324 204.658 86.9392C205.508 88.5417 205.686 90.3792 205.156 92.1101C204.566 94.0412 203.161 95.599 201.299 96.381L187.26 102.283L178.921 89.5396C177.814 87.8496 177.521 85.7725 178.111 83.8415C178.64 82.1106 179.815 80.6865 181.45 79.8171Z" fill="#D3A221"/>
<path d="M179.626 119.696C178.011 120.799 163.777 130.725 161.084 139.534C158.804 146.99 163.016 154.911 170.472 157.191C177.929 159.47 185.85 155.259 188.129 147.802C190.822 138.994 184.572 122.805 183.85 120.987L182.545 117.702L179.626 119.696ZM182.72 146.149C181.353 150.622 176.599 153.149 172.126 151.782C167.653 150.414 165.125 145.661 166.493 141.187C167.934 136.473 175.062 130.212 179.844 126.537C181.757 132.254 184.164 141.427 182.72 146.149Z" fill="#D3A221"/>
<path d="M172.195 190.248L168.214 189.031C169.57 187.538 170.611 185.757 171.221 183.763C173.458 176.445 169.323 168.669 162.002 166.43L160.939 166.105C153.932 163.963 146.491 167.919 144.349 174.927L138.888 192.788C136.746 199.795 140.702 207.236 147.71 209.378C155.618 211.796 164.015 207.331 166.433 199.423C166.906 197.876 167.124 196.271 167.084 194.662L167.08 194.599L170.542 195.657C172.035 196.114 172.876 197.696 172.419 199.189L165.804 220.825L171.214 222.479L177.828 200.842C179.196 196.369 176.669 191.616 172.195 190.248ZM157.832 194.232L161.391 193.164L161.433 194.806C161.454 195.81 161.318 196.806 161.024 197.769C159.518 202.694 154.288 205.475 149.363 203.969C145.339 202.739 143.067 198.466 144.297 194.441L149.758 176.58C150.988 172.556 155.261 170.284 159.286 171.514L160.349 171.839C164.687 173.166 167.137 177.774 165.812 182.11C165.005 184.746 162.949 186.791 160.308 187.584L156.206 188.814L157.832 194.232Z" fill="#D3A221"/>
<path d="M142.376 142.686L131.558 139.379L129.904 144.788L135.313 146.442L125.391 178.896L136.209 182.204L137.863 176.795L132.453 175.141L142.376 142.686Z" fill="#D3A221"/>
<path d="M146.89 108.578L130.663 103.617L129.009 109.026L150.645 115.641L160.568 83.1861L165.977 84.8398L167.63 79.4307L156.812 76.1233L146.89 108.578Z" fill="#D3A221"/>
<path d="M131.11 121.498L158.156 129.766L156.502 135.175L129.457 126.907L131.11 121.498Z" fill="#D3A221"/>
</g>
<defs>
<clipPath id="clip0_5007_350">
<rect width="181" height="181" fill="white" transform="translate(52.9189) rotate(17)"/>
</clipPath>
</defs>
</svg>
