<svg width="227" height="227" viewBox="0 0 227 227" fill="none" xmlns="http://www.w3.org/2000/svg">
<g opacity="0.4" clip-path="url(#clip0_5007_370)">
<path d="M133.19 47.2327C141.175 49.674 146.784 53.8203 149.764 59.6022C153.754 67.3374 151.631 75.207 150.891 77.4254C150.195 79.515 148.025 80.6635 145.908 80.1062C145.623 80.0549 144.992 79.9195 144.186 79.6899L141.146 89.634C139.514 94.9728 134.625 98.5555 129.553 100.59C127.007 101.611 124.387 102.254 122.051 102.536C119.727 102.816 117.64 102.745 116.181 102.299C113.791 101.568 110.691 99.1142 108.058 95.9702L108.058 95.9692C107.24 94.9901 107.369 93.5334 108.347 92.7153L108.536 92.5728C109.506 91.9144 110.832 92.0895 111.6 93.0011L111.601 93.0024C112.804 94.4402 113.995 95.5747 115.038 96.3949C116.091 97.2227 116.964 97.7079 117.532 97.8813C118.367 98.1364 119.835 98.174 121.656 97.9282C123.46 97.6847 125.551 97.1711 127.603 96.3752C131.737 94.7712 135.567 92.0799 136.728 88.2832L139.896 77.9208C136.77 76.1113 134.603 73.3775 134.453 69.7365C130.759 69.4118 126.79 68.3688 122.63 66.6263L122.619 66.621C118.998 65.0036 116.491 65.1684 114.85 65.7765C113.246 66.3709 112.396 67.4164 112.117 67.8145C111.763 68.7004 110.912 69.239 109.998 69.2438L108.222 75.0536C107.849 76.2729 106.558 76.9596 105.338 76.587C104.119 76.2141 103.431 74.9224 103.804 73.7028L105.608 67.8015C104.302 67.2011 102.937 66.4201 101.954 65.4335C100.855 64.33 100.185 62.9126 100.703 61.2185C101.641 58.1518 104.455 53.043 109.643 49.4876C114.856 45.9148 122.423 43.9406 132.777 47.1062L133.19 47.2327Z" fill="#D3A221" stroke="#D3A221"/>
<path d="M105.9 97.2527C106.833 97.5378 107.355 98.2109 107.474 99.046C107.586 99.8401 107.33 100.733 106.852 101.551C105.892 103.191 103.913 104.743 101.406 104.905L86.7239 105.851C82.0096 106.154 77.9093 109.397 76.5279 113.916L74.2843 121.254C73.9114 122.474 72.6191 123.16 71.3995 122.787C70.1801 122.414 69.4933 121.123 69.8661 119.903L72.1097 112.565L72.3022 111.975C74.4101 105.937 80.0095 101.654 86.4271 101.24L101.109 100.294C101.989 100.239 102.758 99.6308 103.016 98.7861C103.389 97.5668 104.681 96.8801 105.9 97.2527Z" fill="#D3A221" stroke="#D3A221"/>
<path d="M127.767 104.113C128.987 104.486 129.674 105.778 129.302 106.997C129.046 107.834 129.339 108.757 130.031 109.294L141.618 118.246C146.852 122.284 149.069 129.247 147.136 135.571L144.907 142.86C144.534 144.08 143.243 144.766 142.023 144.394C140.804 144.021 140.116 142.729 140.489 141.509L142.718 134.22C144.092 129.725 142.515 124.773 138.796 121.904L138.795 121.903L127.206 112.948C125.001 111.246 124.068 108.313 124.883 105.646C125.256 104.427 126.548 103.74 127.767 104.113Z" fill="#D3A221" stroke="#D3A221"/>
<path d="M133.179 126.06C134.399 126.433 135.086 127.725 134.714 128.944L131.698 138.807C131.325 140.027 130.033 140.714 128.813 140.341C127.594 139.968 126.907 138.676 127.28 137.456L130.296 127.594C130.669 126.374 131.96 125.688 133.179 126.06Z" fill="#D3A221" stroke="#D3A221"/>
<path d="M118.667 110.755C119.751 110.312 121.014 110.753 121.576 111.809C122.175 112.936 121.748 114.334 120.621 114.933L113.708 118.609L111.66 125.31C111.287 126.529 109.994 127.216 108.775 126.843C107.555 126.47 106.869 125.178 107.241 123.959L109.29 117.258L105.613 110.345C105.014 109.218 105.442 107.82 106.569 107.221C107.695 106.622 109.093 107.05 109.692 108.176L112.734 113.894L118.452 110.854L118.667 110.755Z" fill="#D3A221" stroke="#D3A221"/>
<path d="M88.9411 112.535C90.1607 112.908 90.8481 114.199 90.4755 115.419L87.4601 125.282C87.0872 126.502 85.7947 127.189 84.575 126.816C83.3556 126.443 82.669 125.151 83.0419 123.931L86.0572 114.068C86.4303 112.849 87.7217 112.162 88.9411 112.535Z" fill="#D3A221" stroke="#D3A221"/>
<path d="M99.2458 69.8981C100.465 70.2709 101.153 71.5627 100.78 72.7823C99.4628 77.0911 101.897 81.6681 106.205 82.9851L107.755 83.459C108.809 82.5512 110.25 82.1888 111.652 82.6173L114.742 83.562C116.945 84.2354 118.188 86.575 117.515 88.7772C116.799 91.117 114.47 92.3783 112.254 91.7009L109.164 90.7561C107.744 90.3219 106.743 89.1942 106.377 87.869L104.854 87.4033C98.1095 85.3412 94.2995 78.1775 96.3619 71.4315C96.7349 70.2122 98.0264 69.5255 99.2458 69.8981Z" fill="#D3A221" stroke="#D3A221"/>
<path d="M80.3428 164.516C81.2019 164.779 81.8246 165.514 81.9528 166.391L81.9724 166.568L81.9721 166.569C82.0447 167.646 82.983 168.754 84.3511 169.172L105.323 175.583C106.89 176.063 108.282 175.441 108.738 174.819C109.319 174.026 110.338 173.687 111.278 173.974L169.663 191.824C170.882 192.197 171.569 193.489 171.196 194.708L169.109 201.535C167.436 207.007 161.371 209.969 155.632 208.214L24.4257 168.101C18.6856 166.345 15.3137 160.498 16.9867 155.026L19.0738 148.2C19.4469 146.98 20.7383 146.294 21.9577 146.666L80.3428 164.516ZM21.4049 156.377C20.4978 159.344 22.403 162.651 25.7765 163.682L156.983 203.796C160.355 204.827 163.784 203.151 164.691 200.184L166.103 195.567L111.242 178.794C109.381 180.229 106.656 180.822 103.972 180.002L83.0003 173.59C80.435 172.806 78.4447 170.882 77.6836 168.534L22.8165 151.76L21.4049 156.377Z" fill="#D3A221" stroke="#D3A221"/>
<path d="M91.0882 69.9474C92.3075 70.3204 92.9942 71.6119 92.6216 72.8313C92.2487 74.0509 90.957 74.7383 89.7374 74.3657L61.6562 65.7804C59.8162 65.2178 57.8611 66.2566 57.2989 68.0949L33.8581 144.766C33.4852 145.986 32.1926 146.673 30.9729 146.3C29.7535 145.927 29.067 144.635 29.4398 143.416L52.8807 66.7441C54.188 62.4682 58.7303 60.0546 63.007 61.3621L91.0882 69.9474Z" fill="#D3A221" stroke="#D3A221"/>
<path d="M94.6061 83.9418C95.8256 84.3147 96.513 85.6065 96.1404 86.826C95.7675 88.0457 94.475 88.733 93.2553 88.3601L67.1782 80.3875C66.3879 80.1459 65.5882 80.5712 65.3464 81.3623L45.882 145.028C45.509 146.247 44.2168 146.934 42.9971 146.561C41.7777 146.188 41.091 144.896 41.4637 143.677L60.9281 80.0115C61.9094 76.8019 65.3191 74.9879 68.529 75.9693L94.6061 83.9418Z" fill="#D3A221" stroke="#D3A221"/>
<path d="M182.681 97.9501C186.958 99.2579 189.373 103.799 188.066 108.074L164.625 184.746C164.252 185.965 162.961 186.653 161.741 186.28C160.521 185.907 159.834 184.615 160.207 183.395L183.648 106.723C184.21 104.885 183.17 102.931 181.331 102.368L146.257 91.6454C145.038 91.2724 144.351 89.9801 144.724 88.7606C145.097 87.5413 146.389 86.8546 147.608 87.2272L182.681 97.9501Z" fill="#D3A221" stroke="#D3A221"/>
<path d="M169.934 106.972C173.144 107.953 174.956 111.364 173.975 114.574L154.511 178.239C154.138 179.458 152.846 180.145 151.626 179.772C150.406 179.399 149.72 178.108 150.093 176.888L169.557 113.223C169.799 112.432 169.374 111.632 168.583 111.39L142.505 103.417C141.286 103.044 140.599 101.752 140.972 100.533C141.345 99.3133 142.637 98.6266 143.856 98.9992L169.934 106.972Z" fill="#D3A221" stroke="#D3A221"/>
<path d="M200.267 57.5077C202.836 58.2931 204.287 61.0215 203.501 63.5911L198.071 81.3509C197.285 83.9204 194.557 85.3712 191.988 84.5859L173.826 79.0331L167.605 81.6173L167.602 81.6183C165.533 82.4581 163.272 80.8251 163.468 78.5673L163.468 78.5664L163.697 75.8944C161.379 74.8741 160.186 72.3731 160.914 69.9909L166.345 52.2283C167.13 49.6613 169.857 48.2104 172.424 48.9953L200.267 57.5077ZM171.073 53.4135C170.944 53.3741 170.804 53.448 170.763 53.5791L165.333 71.3417C165.292 71.4748 165.368 71.616 165.499 71.6561C167.357 72.2244 168.507 73.897 168.35 75.7055L168.292 76.3801C169.018 76.1037 169.64 75.8453 170.184 75.6117C170.895 75.3065 171.5 75.0336 172.02 74.8302C173.089 74.4123 173.933 74.2345 175.006 74.5626L193.339 80.1677C193.47 80.2077 193.612 80.1331 193.653 80.0001L199.083 62.2403C199.123 62.1072 199.047 61.966 198.916 61.926L171.073 53.4135Z" fill="#D3A221" stroke="#D3A221"/>
<path d="M189.302 62.611C190.521 62.984 191.208 64.2754 190.835 65.4949C190.462 66.7144 189.17 67.4018 187.951 67.0292L177.311 63.7763C176.092 63.4032 175.405 62.111 175.778 60.8914C176.151 59.6722 177.442 58.9855 178.662 59.358L189.302 62.611Z" fill="#D3A221" stroke="#D3A221"/>
<path d="M188.865 70.7211L189.088 70.8014C190.167 71.2551 190.748 72.4618 190.399 73.605C190.026 74.8247 188.734 75.5122 187.515 75.1393L173.138 70.7441C171.919 70.371 171.232 69.0788 171.605 67.8592C171.978 66.6399 173.27 65.9532 174.489 66.3258L188.865 70.7211Z" fill="#D3A221" stroke="#D3A221"/>
<path d="M121.859 150.765L122.081 150.845C123.16 151.299 123.741 152.506 123.392 153.649L122.254 157.372L140.534 162.961C141.753 163.334 142.441 164.626 142.068 165.845C141.695 167.065 140.402 167.752 139.183 167.379L120.903 161.791L119.74 165.593C119.367 166.812 118.076 167.499 116.857 167.126L109.217 164.79C107.998 164.417 107.31 163.126 107.683 161.906L108.845 158.104L57.8119 142.502C56.5925 142.129 55.9059 140.837 56.2788 139.617C56.6517 138.398 57.9432 137.711 59.1627 138.084L110.196 153.686L111.334 149.963C111.708 148.743 113 148.057 114.219 148.43L121.859 150.765ZM112.777 161.047L115.998 162.032L118.298 154.508L115.077 153.523L112.777 161.047Z" fill="#D3A221" stroke="#D3A221"/>
</g>
<defs>
<clipPath id="clip0_5007_370">
<rect width="181" height="181" fill="white" transform="translate(52.9189) rotate(17)"/>
</clipPath>
</defs>
</svg>
