<svg width="227" height="227" viewBox="0 0 227 227" fill="none" xmlns="http://www.w3.org/2000/svg">
<g opacity="0.4" clip-path="url(#clip0_5007_388)">
<path d="M77.2434 36.8296C81.2538 23.7122 61.6275 17.6302 57.6384 30.678C57.1513 32.2712 58.0481 33.9578 59.6413 34.4448C61.2344 34.9319 62.921 34.0351 63.4081 32.442C65.0272 27.1461 73.2035 29.4077 71.4737 35.0656C69.7605 40.6691 56.7776 33.4936 52.4003 47.8112C51.9132 49.4043 52.81 51.0909 54.4031 51.578L68.2825 55.8213C69.8757 56.3084 71.5623 55.4116 72.0494 53.8185C72.5364 52.2253 71.6397 50.5387 70.0465 50.0516L59.4057 46.7984C63.2508 40.9529 74.0832 47.166 77.2434 36.8296Z" fill="#D3A221"/>
<path d="M87.0553 61.4648C88.6485 61.9519 90.3351 61.0551 90.8222 59.4619L92.0498 55.4466C93.5623 55.7667 95.0951 54.8828 95.5558 53.3762C96.0164 51.8696 95.2397 50.28 93.8069 49.6992L98.1129 35.615C98.969 32.8149 95.7104 30.5541 93.3876 32.3427L76.1482 45.6154C74.2102 47.1073 74.7656 50.1749 77.1067 50.8906L86.2769 53.6943L85.0527 57.6984C84.5653 59.2915 85.4622 60.9777 87.0553 61.4648ZM84.4608 46.83L89.5806 42.8883L88.0409 47.9246L84.4608 46.83Z" fill="#D3A221"/>
<path d="M66.6168 75.3144C72.8764 77.0137 79.4699 76.8517 85.6261 74.9165L85.0459 76.3448C84.3781 77.9899 85.2675 79.8478 86.9623 80.3659C88.4401 80.8177 90.0437 80.0738 90.6364 78.615L93.9932 70.349C94.651 68.7287 93.7961 66.8858 92.1299 66.3448C80.7322 62.6437 84.3045 63.7907 83.5934 63.5733C82.0233 63.0933 80.3525 63.959 79.8432 65.5268C79.3287 67.1116 80.1961 68.8133 81.7805 69.3276L82.4645 69.5498C77.7978 70.7633 72.8829 70.7642 68.1976 69.4927C52.8465 65.3285 44.19 49.4019 48.7099 34.4052C53.196 19.5176 69.3442 11.3307 84.0429 15.8246C90.1884 17.7034 95.299 21.5147 98.8227 26.8462C99.7419 28.2364 101.613 28.6184 103.003 27.6996C104.393 26.7807 104.775 24.9093 103.856 23.5197C99.5501 17.0045 93.3089 12.3485 85.8069 10.0549C67.7178 4.52446 48.3299 14.7555 42.9331 32.6631C37.4721 50.7793 47.8516 70.2169 66.6168 75.3144Z" fill="#D3A221"/>
<path d="M212.946 64.6973L119.982 36.2754C115.21 34.8164 110.14 37.5117 108.681 42.284L88.0291 109.834C87.542 111.427 88.4388 113.114 90.032 113.601C91.6251 114.088 93.3117 113.191 93.7988 111.598L114.451 44.0479C114.937 42.4573 116.627 41.5588 118.218 42.0451L211.182 70.467C212.772 70.9533 213.671 72.6432 213.185 74.2339L169.085 218.476L160.431 215.831L201.884 80.2425C202.371 78.6493 201.474 76.9627 199.881 76.4756L124.226 53.3456C122.633 52.8585 120.947 53.7553 120.459 55.3485L102.738 113.313C102.251 114.906 103.148 116.593 104.741 117.08C106.334 117.567 108.021 116.67 108.508 115.077L125.347 59.9973L195.232 81.3633L154.661 214.067L115.285 202.028C113.692 201.541 112.005 202.438 111.518 204.031C111.031 205.624 111.928 207.311 113.521 207.798L170.206 225.128C171.799 225.615 173.486 224.718 173.973 223.125L218.954 75.9978C220.413 71.2256 217.718 66.1562 212.946 64.6973Z" fill="#D3A221"/>
<path d="M162.341 149.839L165.684 138.905C166.171 137.312 165.274 135.625 163.681 135.138C162.088 134.651 160.401 135.548 159.914 137.141L156.571 148.075C156.084 149.669 156.981 151.355 158.574 151.842C160.167 152.329 161.853 151.433 162.341 149.839Z" fill="#D3A221"/>
<path d="M117.501 130.623C35.4327 105.532 57.8253 112.378 50.7307 110.209C45.9588 108.751 40.8892 111.446 39.4302 116.218L22.8041 170.6C21.345 175.372 24.0408 180.441 28.8127 181.9L95.5829 202.314C100.355 203.773 105.424 201.078 106.883 196.305L123.51 141.924C124.969 137.151 122.273 132.082 117.501 130.623ZM101.114 194.541C100.627 196.132 98.9376 197.031 97.3469 196.544L30.5766 176.13C28.986 175.644 28.0875 173.954 28.5738 172.364L45.1999 117.982C45.6862 116.391 47.3761 115.493 48.9668 115.979L68.6732 122.004L58.9792 145.024C58.1645 146.96 59.5323 149.12 61.6319 149.209L67.7991 149.47L71.8182 154.473C72.5937 155.438 73.8803 155.832 75.063 155.465L81.1931 153.565L86.4521 156.797C88.241 157.897 90.5837 156.873 90.9913 154.811L93.6911 141.131C94.0133 139.497 92.9528 137.91 91.3155 137.588C89.6808 137.265 88.0943 138.328 87.7715 139.963L85.9126 149.384C83.265 147.757 82.3629 146.886 80.7138 147.397L75.2367 149.094L71.6456 144.624C70.529 143.234 69.153 143.489 66.2245 143.365L74.4732 123.777L115.737 136.393C117.328 136.879 118.226 138.569 117.74 140.16L101.114 194.541Z" fill="#D3A221"/>
<path d="M52.9591 168.409L44.0255 165.678C42.4323 165.191 40.7457 166.088 40.2586 167.681C39.7716 169.274 40.6683 170.961 42.2615 171.448L51.1952 174.179C52.7883 174.666 54.4749 173.769 54.962 172.176C55.4491 170.583 54.5523 168.896 52.9591 168.409Z" fill="#D3A221"/>
</g>
<defs>
<clipPath id="clip0_5007_388">
<rect width="181" height="181" fill="white" transform="translate(52.9189) rotate(17)"/>
</clipPath>
</defs>
</svg>
