<svg width="39" height="29" viewBox="0 0 39 29" fill="none" xmlns="http://www.w3.org/2000/svg">
<path d="M22.62 18.3857C21.6912 19.0023 20.6123 19.3283 19.5 19.3283C18.3877 19.3283 17.3088 19.0023 16.38 18.3857L1.08183 8.22833C0.99695 8.17197 0.914263 8.11323 0.833252 8.05281V24.6967C0.833252 26.6049 2.3882 28.1194 4.27004 28.1194H34.7298C36.6459 28.1194 38.1666 26.5708 38.1666 24.6967V8.05273C38.0854 8.1133 38.0026 8.17219 37.9175 8.22862L22.62 18.3857Z" fill="#434343"/>
<path d="M2.29523 6.23401L17.5934 16.345C18.1725 16.7278 18.8362 16.9191 19.4998 16.9191C20.1636 16.9191 20.8274 16.7277 21.4065 16.345L36.7046 6.23401C37.6201 5.62934 38.1666 4.61732 38.1666 3.52507C38.1666 1.64699 36.6253 0.119141 34.731 0.119141H4.26887C2.37449 0.119213 0.833252 1.64706 0.833252 3.52688C0.833252 4.61732 1.37984 5.62934 2.29523 6.23401Z" fill="#434343"/>
</svg>
