<svg width="29" height="29" viewBox="0 0 29 29" fill="none" xmlns="http://www.w3.org/2000/svg">
<path fill-rule="evenodd" clip-rule="evenodd" d="M4.16659 0.119141C2.32564 0.119141 0.833252 1.61153 0.833252 3.45247V24.7858C0.833252 26.6267 2.32564 28.1191 4.16659 28.1191H14.8333C15.2014 28.1191 15.4999 27.8206 15.4999 27.4525V17.4525C15.4999 17.0843 15.2014 16.7858 14.8333 16.7858H12.1666V13.4525H14.8333C15.2014 13.4525 15.4999 13.1539 15.4999 12.7858V8.78581C15.4999 6.57667 17.2907 4.78581 19.4999 4.78581H23.4999V8.11914H22.1666C20.6938 8.11914 19.4999 9.31305 19.4999 10.7858V12.7858C19.4999 13.1539 19.7985 13.4525 20.1666 13.4525H23.2827L22.3303 16.7858H20.1666C19.7985 16.7858 19.4999 17.0843 19.4999 17.4525V27.4525C19.4999 27.8206 19.7985 28.1191 20.1666 28.1191H25.4999C27.3409 28.1191 28.8333 26.6267 28.8333 24.7858V3.45247C28.8333 1.61153 27.3409 0.119141 25.4999 0.119141H4.16659Z" fill="#434343"/>
</svg>
