<svg width="25" height="25" viewBox="0 0 25 25" fill="none" xmlns="http://www.w3.org/2000/svg">
<path d="M20.5057 8.71094C20.5057 4.53247 16.7824 1.00005 12.0028 1C7.22321 1 3.49999 4.53244 3.49999 8.71094C3.49999 11.071 4.66239 13.9238 6.26071 16.6895C7.8403 19.4227 9.76198 21.9303 11.1073 23.5645L11.2011 23.667C11.6885 24.1429 12.4503 24.1086 12.8983 23.5645L13.4286 22.9121C14.7192 21.3001 16.3619 19.0809 17.744 16.6895C19.3424 13.9237 20.5057 11.0711 20.5057 8.71094ZM16.2538 9.50293C16.2538 7.15497 14.3507 5.25103 12.0028 5.25098C9.65486 5.25098 7.75092 7.15494 7.75092 9.50293C7.75098 11.8508 9.6549 13.7539 12.0028 13.7539C14.3507 13.7539 16.2537 11.8508 16.2538 9.50293ZM17.2538 9.50293C17.2537 12.4031 14.903 14.7539 12.0028 14.7539C9.10261 14.7539 6.75099 12.4031 6.75093 9.50293C6.75093 6.60265 9.10259 4.25098 12.0028 4.25098C14.903 4.25103 17.2538 6.60268 17.2538 9.50293ZM21.491 9.20996C21.1886 14.4091 16.3114 20.9929 13.6708 24.2002L13.4979 24.3877C12.6578 25.2041 11.3479 25.2041 10.5077 24.3877L10.3349 24.2002C7.69437 20.9929 2.81711 14.4091 2.51465 9.20996L2.5 8.71094C2.5 3.90003 6.75461 0 12.0028 0L12.4921 0.0117188C17.5129 0.245186 21.5057 4.05048 21.5057 8.71094L21.491 9.20996Z" fill="#FEFEFE"/>
</svg>
