<svg width="29" height="29" viewBox="0 0 29 29" fill="none" xmlns="http://www.w3.org/2000/svg">
<path fill-rule="evenodd" clip-rule="evenodd" d="M24.1665 0.585807H4.1665C2.22424 0.585807 0.633171 2.17687 0.633171 4.11914V24.1191C0.633171 26.0614 2.22424 27.6525 4.1665 27.6525H24.1665C26.1088 27.6525 27.6998 26.0614 27.6998 24.1191V4.11914C27.6998 2.17687 26.1088 0.585807 24.1665 0.585807ZM24.1665 0.119141H4.1665C1.9665 0.119141 0.166504 1.91914 0.166504 4.11914V24.1191C0.166504 26.3191 1.9665 28.1191 4.1665 28.1191H24.1665C26.3665 28.1191 28.1665 26.3191 28.1665 24.1191V4.11914C28.1665 1.91914 26.3665 0.119141 24.1665 0.119141Z" fill="#2D2F39"/>
<path fill-rule="evenodd" clip-rule="evenodd" d="M24.1665 0.119141H4.1665C1.9665 0.119141 0.166504 1.91914 0.166504 4.11914V24.1191C0.166504 26.3191 1.9665 28.1191 4.1665 28.1191H24.1665C26.3665 28.1191 28.1665 26.3191 28.1665 24.1191V4.11914C28.1665 1.91914 26.3665 0.119141 24.1665 0.119141ZM10.1666 3.88574H18.1666C21.4666 3.88574 24.1666 6.58574 24.1666 9.88574V17.8857C24.1666 21.1857 21.4666 23.8857 18.1666 23.8857H10.1666C6.86655 23.8857 4.16655 21.1857 4.16655 17.8857V9.88574C4.16655 6.58574 6.86655 3.88574 10.1666 3.88574ZM22.2666 17.8857C22.2666 20.1857 20.3666 21.9857 18.1666 21.9857H10.1666C7.86655 21.9857 6.06655 20.0857 6.06655 17.8857V9.88574C6.06655 7.58574 7.96655 5.78574 10.1666 5.78574H18.1666C20.4666 5.78574 22.2666 7.68574 22.2666 9.88574V17.8857ZM14.1666 9.08574C11.4666 9.08574 9.26655 11.2857 9.26655 13.9857C9.26655 16.6857 11.4666 18.8857 14.1666 18.8857C16.8666 18.8857 19.0666 16.6857 19.0666 13.9857C19.1666 11.2857 16.9666 9.08574 14.1666 9.08574ZM10.9666 13.9857C10.9666 15.7857 12.4666 17.1857 14.1666 17.1857C15.9666 17.1857 17.3666 15.7857 17.3666 13.9857C17.3666 12.1857 15.8666 10.7857 14.1666 10.7857C12.3666 10.7857 10.9666 12.2857 10.9666 13.9857ZM18.2666 8.78574C18.2666 8.08574 18.8666 7.58574 19.4666 7.58574C20.0666 7.58574 20.5666 8.08574 20.6666 8.78574C20.6666 9.48574 20.1666 9.98574 19.4666 9.98574C18.7666 9.98574 18.2666 9.48574 18.2666 8.78574Z" fill="#434343"/>
</svg>
