<svg width="373" height="353" viewBox="0 0 373 353" fill="none" xmlns="http://www.w3.org/2000/svg">
<g opacity="0.2" clip-path="url(#clip0_4892_2127)">
<path d="M389.076 209.623C396.62 243.515 391.226 280.351 371.107 311.987C351.693 342.513 321.624 363.698 286.438 371.64C251.24 379.584 215.138 373.327 184.779 354.02C131.475 320.122 109.146 253.483 130.664 194.208L87.8938 167.008C88.9117 173.993 87.4051 181.161 83.5464 187.229C79.7989 193.12 74.0758 197.522 67.4303 199.624C59.8907 202.006 51.8857 201.299 44.8881 197.635C37.9007 193.977 32.7695 187.814 30.4386 180.282L22.4834 154.575C21.643 151.871 23.1608 148.999 25.8654 148.162C28.5707 147.324 31.4421 148.839 32.2793 151.544L40.2344 177.251C41.7515 182.155 45.0936 186.169 49.6443 188.551C54.2059 190.939 59.4249 191.4 64.3394 189.847C68.6889 188.47 72.4381 185.586 74.8936 181.726C77.9694 176.889 78.764 170.99 77.0804 165.542L74.4385 157.005C73.806 154.95 74.5171 152.719 76.2248 151.415C77.9332 150.11 80.2743 150.01 82.0879 151.164L139.693 187.798C141.772 189.121 142.616 191.736 141.705 194.023C119.506 249.699 139.934 313.348 190.283 345.367C218.32 363.198 251.667 368.976 284.181 361.638C316.707 354.296 344.505 334.709 362.455 306.484C399.504 248.228 382.549 170.884 324.659 134.069C319.19 130.59 313.428 127.525 307.535 124.959C304.937 123.828 303.75 120.807 304.88 118.211C306.01 115.615 309.032 114.427 311.628 115.557C318.009 118.336 324.244 121.653 330.162 125.416C361.369 145.264 381.591 175.994 389.076 209.623Z" fill="#D3A221"/>
<path d="M291.843 111.683C292.65 115.227 289.319 118.702 285.7 117.793C242.738 108.029 197.254 121.999 166.997 154.253C165.312 156.049 162.586 156.394 160.507 155.071L102.901 118.436C98.8898 116.002 100.323 109.577 104.948 109.031C114.01 107.829 122.007 107.644 127.529 98.9595C132.902 90.7956 130.935 78.9905 123.004 73.1996C118.917 70.088 113.864 68.7633 108.777 69.4682L33.6704 79.8831C21.916 81.5337 14.2963 93.5799 17.8438 104.905L25.222 128.744C27.0556 135.227 17.5964 138.201 15.4263 131.776C14.1868 127.178 6.97325 106.248 6.82415 101.877C5.9843 92.5477 9.75323 82.9985 16.8101 76.8419C20.4068 73.6941 24.8388 71.3514 29.5319 70.2482C30.4201 70.0443 31.3344 69.8604 32.2348 69.7308L107.368 59.3125C115.179 58.23 122.938 60.2641 129.214 65.0408C148.394 79.3766 142.58 110.281 119.71 116.975L162.482 144.176C195.18 111.462 242.857 97.5399 287.971 107.793C289.968 108.247 291.426 109.809 291.843 111.683Z" fill="#D3A221"/>
<path d="M332.935 209.756C337.447 230.03 338.305 254.642 335.477 283.207C335.121 286.812 333.049 290.071 329.933 291.924C298.125 310.842 269.666 321.428 245.344 323.387C230.674 324.569 216.116 321.954 204.352 316.024C190.746 309.165 181.241 298.196 176.864 284.304C169.142 259.781 180.024 233.389 202.741 221.533C208.188 218.691 214.16 216.906 220.521 216.219C218.446 210.17 217.528 204.004 217.793 197.864C218.898 172.262 238.191 151.212 263.669 147.811C278.106 145.883 292.07 149.84 304.052 159.255C314.411 167.393 322.952 179.469 328.102 193.256C330.018 198.385 331.63 203.891 332.935 209.756ZM185.675 277.612C185.944 278.82 186.266 280.024 186.644 281.223C194.945 307.574 223.01 314.899 244.52 313.167C267.268 311.334 294.241 301.222 324.692 283.11C325.023 282.914 325.235 282.581 325.273 282.198C328.763 246.942 326.479 218.226 318.496 196.846C310.944 176.63 292.409 154.32 265.024 157.976C244.483 160.718 228.927 177.68 228.038 198.307C227.806 203.691 228.735 209.132 230.8 214.484C231.804 217.086 231.524 219.925 230.033 222.271C228.541 224.616 226.09 226.072 223.307 226.266C217.586 226.665 212.263 228.132 207.486 230.625C190.292 239.597 181.516 258.918 185.675 277.612Z" fill="#D3A221"/>
</g>
<defs>
<clipPath id="clip0_4892_2127">
<rect width="350" height="350" fill="white" transform="translate(77 418.246) rotate(-102.545)"/>
</clipPath>
</defs>
</svg>
