<svg width="372" height="353" viewBox="0 0 372 353" fill="none" xmlns="http://www.w3.org/2000/svg">
<g clip-path="url(#clip0_4892_2141)">
<g opacity="0.2">
<mask id="mask0_4892_2141" style="mask-type:luminance" maskUnits="userSpaceOnUse" x="0" y="0" width="442" height="442">
<path d="M0.389283 108.835L333.165 0.389296L441.611 333.165L108.835 441.611L0.389283 108.835Z" fill="white"/>
</mask>
<g mask="url(#mask0_4892_2141)">
<path d="M165.742 173.497C168.338 181.462 176.9 185.817 184.865 183.221L190.25 181.466L190.437 181.4C192.337 180.672 193.352 178.574 192.715 176.618C192.077 174.662 190.021 173.566 188.057 174.097L187.868 174.154L182.483 175.909C178.556 177.188 174.334 175.042 173.054 171.115C172.396 169.095 170.226 167.992 168.207 168.65C166.187 169.308 165.084 171.478 165.742 173.497Z" fill="#757778"/>
<path d="M230.347 152.443C231.627 156.371 229.48 160.593 225.554 161.872L220.169 163.627C218.149 164.285 217.046 166.455 217.704 168.475C218.362 170.494 220.532 171.597 222.551 170.939L227.936 169.184C235.902 166.588 240.255 158.026 237.659 150.061C237.001 148.041 234.831 146.938 232.812 147.596C230.793 148.254 229.689 150.424 230.347 152.443Z" fill="#757778"/>
<path d="M178.023 211.184C180.619 219.149 189.181 223.502 197.146 220.906L202.531 219.152L202.718 219.086C204.617 218.358 205.633 216.26 204.996 214.304C204.358 212.348 202.301 211.251 200.338 211.783L200.148 211.84L194.763 213.594C190.836 214.874 186.615 212.728 185.335 208.801C184.677 206.782 182.507 205.678 180.487 206.336C178.468 206.994 177.365 209.165 178.023 211.184Z" fill="#757778"/>
<path d="M242.629 190.13C243.908 194.057 241.762 198.278 237.835 199.558L232.45 201.313C230.431 201.971 229.327 204.141 229.985 206.16C230.643 208.18 232.814 209.283 234.833 208.625L240.218 206.87C248.183 204.274 252.536 195.712 249.94 187.747C249.282 185.728 247.112 184.624 245.093 185.282C243.074 185.94 241.971 188.111 242.629 190.13Z" fill="#757778"/>
<path d="M250.368 104.23C252.617 111.131 248.846 118.548 241.945 120.797C239.925 121.455 238.822 123.626 239.48 125.645C240.138 127.664 242.308 128.767 244.327 128.109C255.267 124.544 261.245 112.787 257.68 101.847C257.022 99.828 254.852 98.7245 252.833 99.3823C250.813 100.04 249.71 102.211 250.368 104.23Z" fill="#757778"/>
<path d="M121.157 146.338C124.723 157.277 136.481 163.255 147.42 159.69C149.439 159.032 150.543 156.862 149.885 154.843C149.227 152.823 147.057 151.72 145.037 152.378C138.136 154.627 130.718 150.856 128.469 143.955C127.811 141.936 125.641 140.832 123.622 141.49C121.603 142.148 120.5 144.318 121.157 146.338Z" fill="#757778"/>
<path d="M255.09 90.9935C270.059 88.5231 279.899 74.0115 276.657 59.1904L276.658 59.1902L270.931 33.0142L270.871 32.7583C269.552 27.4169 263.962 24.2896 258.697 26.0053L131.719 67.3853C129.7 68.0433 128.597 70.2136 129.255 72.2327C129.913 74.2519 132.083 75.3553 134.102 74.6973L261.08 33.3173C262.103 32.9836 263.189 33.6067 263.418 34.6554L263.418 34.6563L269.145 60.8339C271.446 71.3534 264.462 81.6524 253.838 83.4058L253.831 83.407L218.528 89.2974C209.078 90.8741 199.37 89.3824 190.83 85.0401L190.651 84.9546C188.793 84.1258 186.592 84.8912 185.659 86.725C184.697 88.618 185.451 90.9328 187.344 91.8952L187.814 92.1313C197.705 97.0363 208.895 98.7011 219.794 96.8829L255.09 90.9931L255.09 90.9935Z" fill="#D3A221"/>
<path d="M80.8362 123.377C87.0607 137.028 103.405 142.809 116.849 136.044L116.85 136.045L148.845 120.004L149.314 119.766C158.977 114.8 166.863 106.958 171.884 97.3224L172.125 96.8549L172.21 96.6764C173.039 94.8187 172.274 92.617 170.44 91.6847C168.606 90.7522 166.376 91.4311 165.364 93.1957L165.27 93.3696L165.064 93.7688C160.779 101.994 154.047 108.687 145.799 112.926L145.398 113.129L113.403 129.17L113.397 129.173C103.93 133.94 92.4339 129.939 87.9385 120.412L87.7297 119.954L76.9331 95.4287C76.5002 94.4454 77.0105 93.3025 78.0331 92.9691L108.245 83.1236L108.431 83.0575C110.331 82.3301 111.347 80.2323 110.71 78.2762C110.072 76.3202 108.015 75.2234 106.052 75.7551L105.862 75.8116L75.6503 85.6571C70.3024 87.4001 67.6278 93.3794 69.8946 98.5276L80.6909 123.053L80.6911 123.053L80.8362 123.377Z" fill="#D3A221"/>
<path d="M142.548 211.974L149.229 232.478C149.887 234.497 152.058 235.6 154.077 234.942C156.096 234.284 157.199 232.114 156.541 230.095L149.86 209.591C144.917 194.424 136.566 180.595 125.449 169.163L124.918 168.621C118.732 162.351 113.432 155.266 109.165 147.564L108.755 146.817L100.636 131.85L100.537 131.678C99.4781 129.942 97.2309 129.322 95.4227 130.303C93.556 131.316 92.8637 133.65 93.8763 135.517L101.996 150.485L102.438 151.292C107.044 159.606 112.765 167.254 119.444 174.023C129.986 184.708 137.896 197.702 142.548 211.974Z" fill="#D3A221"/>
<path d="M271.758 169.866L278.44 190.37C279.098 192.389 281.268 193.493 283.287 192.835C285.306 192.177 286.41 190.006 285.752 187.987L279.07 167.483C274.419 153.211 273.155 138.051 275.377 123.205L275.509 122.295C276.833 112.883 276.866 103.332 275.605 93.9081L273.348 77.0302L273.316 76.8346C272.945 74.8346 271.066 73.4559 269.027 73.7286C266.988 74.0014 265.537 75.8257 265.704 77.853L265.725 78.0498L267.983 94.9277C269.151 103.657 269.121 112.504 267.894 121.223L267.771 122.067C265.372 138.093 266.737 154.458 271.758 169.866Z" fill="#D3A221"/>
<path d="M250.439 360.295C250.749 361.249 250.228 362.274 249.274 362.585L184.668 383.639C183.714 383.95 182.688 383.429 182.377 382.475L163.635 324.963C156.706 303.701 153.078 281.508 152.871 259.158L298.528 211.691C311.53 229.872 321.674 249.941 328.603 271.203L347.345 328.714C347.656 329.669 347.135 330.694 346.181 331.005L281.576 352.059C280.622 352.369 279.596 351.848 279.285 350.894L263.495 302.44C262.837 300.421 260.666 299.317 258.647 299.975L237.113 306.993C235.094 307.651 233.99 309.821 234.648 311.84L250.439 360.295ZM335.915 268.82C328.446 245.9 317.368 224.319 303.098 204.89C302.115 203.552 300.385 202.996 298.807 203.51L147.826 252.713C146.248 253.228 145.178 254.696 145.173 256.356C145.09 280.462 148.854 304.426 156.323 327.346L175.065 384.857C176.692 389.85 182.058 392.578 187.051 390.951L251.657 369.897C256.648 368.27 259.378 362.905 257.751 357.912L243.152 313.114L257.374 308.479L271.973 353.277C273.6 358.27 278.967 360.997 283.958 359.37L348.564 338.317C353.556 336.69 356.284 331.324 354.657 326.331L335.915 268.82Z" fill="#D3A221"/>
<path d="M279.111 356.906L284.375 373.058C286.002 378.051 291.369 380.778 296.361 379.151L349.67 361.779L349.887 361.705C354.348 360.133 356.976 355.513 356.048 350.875L356 350.65L356 350.649L352.134 333.487L352.085 333.295C351.539 331.336 349.545 330.129 347.538 330.581C345.531 331.033 344.247 332.978 344.593 334.983L344.631 335.177L348.497 352.339L348.515 352.425C348.665 353.283 348.184 354.129 347.37 354.438L347.287 354.467L293.978 371.839C293.023 372.15 291.998 371.629 291.687 370.675L286.423 354.523C285.765 352.504 283.595 351.401 281.576 352.059C279.557 352.717 278.454 354.887 279.111 356.906Z" fill="#D3A221"/>
<path d="M238.477 314.49C240.509 314.401 242.136 312.732 242.149 310.675C242.163 308.551 240.453 306.818 238.33 306.804L220.423 306.684C218.3 306.67 216.567 308.38 216.553 310.503C216.538 312.627 218.249 314.36 220.372 314.374L238.278 314.494L238.477 314.49Z" fill="#D3A221"/>
<path d="M256.747 305.917C257.97 307.571 260.268 307.962 261.963 306.836L262.125 306.723L276.523 296.076L276.679 295.954C278.251 294.663 278.551 292.352 277.328 290.697C276.105 289.044 273.807 288.654 272.112 289.779L271.95 289.892L257.553 300.54L257.397 300.661C255.824 301.952 255.524 304.263 256.747 305.917Z" fill="#D3A221"/>
<path d="M150.671 193.872C152.759 194.259 154.766 192.88 155.153 190.792C155.54 188.704 154.161 186.697 152.073 186.31C145.441 185.081 139.5 181.616 135.112 178.308C132.941 176.671 131.207 175.115 130.023 173.976C129.433 173.407 128.982 172.946 128.686 172.634C128.538 172.478 128.429 172.36 128.361 172.285C128.326 172.248 128.302 172.221 128.288 172.205C128.282 172.198 128.277 172.193 128.276 172.191C128.275 172.19 128.275 172.19 128.275 172.191C128.275 172.191 128.276 172.192 128.277 172.192L128.278 172.194L128.277 172.194C126.874 170.601 124.446 170.446 122.852 171.849C121.258 173.252 121.103 175.682 122.506 177.276L125.1 174.993C122.517 177.267 122.507 177.277 122.508 177.278C122.508 177.278 122.509 177.279 122.509 177.28C122.511 177.281 122.512 177.283 122.514 177.285C122.517 177.288 122.521 177.293 122.526 177.298C122.535 177.308 122.547 177.322 122.561 177.338C122.59 177.37 122.63 177.415 122.681 177.47C122.782 177.581 122.926 177.736 123.11 177.93C123.478 178.318 124.01 178.862 124.691 179.517C126.051 180.826 128.02 182.591 130.482 184.448C135.361 188.127 142.409 192.34 150.671 193.872Z" fill="#D3A221"/>
<path d="M256.405 157.796C257.9 159.209 260.23 159.189 261.701 157.784L261.841 157.643L262.109 157.356C267.714 151.302 270.854 143.89 272.601 138.134C273.496 135.183 274.046 132.597 274.374 130.738C274.538 129.807 274.647 129.054 274.716 128.524C274.751 128.258 274.776 128.048 274.792 127.899C274.8 127.825 274.806 127.765 274.811 127.722C274.813 127.7 274.815 127.682 274.816 127.669C274.817 127.662 274.817 127.656 274.818 127.651C274.818 127.648 274.818 127.646 274.819 127.645C274.819 127.644 274.819 127.642 274.819 127.642C274.819 127.641 274.819 127.64 271.135 127.301L274.819 127.639C275.013 125.525 273.456 123.653 271.342 123.459C269.227 123.264 267.355 124.821 267.16 126.935L267.161 126.936C267.16 126.939 267.16 126.944 267.159 126.95C267.157 126.97 267.153 127.006 267.148 127.056C267.137 127.157 267.118 127.317 267.09 127.53C267.035 127.956 266.943 128.595 266.801 129.402C266.515 131.02 266.03 133.299 265.241 135.901C263.695 140.994 261.058 147.066 256.682 151.896L256.252 152.36L256.12 152.507C254.799 154.054 254.91 156.382 256.405 157.796Z" fill="#D3A221"/>
<path d="M50.8863 223.096C52.6019 227.94 57.879 230.559 62.7933 228.957L88.2861 220.65L91.9947 232.03C93.8091 237.597 101.357 238.268 104.164 233.231L104.294 232.987L120.405 201.298L120.514 201.077C122.691 196.512 120.906 191.033 116.457 188.628L116.239 188.514L84.5505 172.402C79.2483 169.706 73.3337 174.767 75.1766 180.422L78.8853 191.803L53.3925 200.11C48.4786 201.712 45.757 206.936 47.2252 211.862L47.2983 212.096L50.8075 222.864L50.8863 223.096ZM95.2838 217.302C94.1416 213.797 90.3745 211.881 86.8677 213.023L60.4104 221.645C59.4558 221.956 58.4302 221.434 58.1194 220.481L54.6103 209.713L54.5838 209.624C54.3326 208.696 54.8503 207.724 55.7753 207.422L82.2326 198.8C85.7405 197.657 87.6533 193.887 86.5114 190.384L83.2471 180.367L112.754 195.369L112.836 195.414C113.643 195.877 113.97 196.878 113.59 197.728L113.55 197.812L98.5482 227.32L95.2838 217.302Z" fill="#D3A221"/>
<path d="M352.299 124.612C352.61 125.566 352.089 126.592 351.134 126.903L324.677 135.525C321.17 136.668 319.256 140.437 320.398 143.942L323.663 153.959L294.155 138.957L294.156 138.957C293.261 138.502 292.904 137.408 293.359 136.513L308.362 107.006L311.626 117.023C312.768 120.528 316.535 122.445 320.042 121.302L346.499 112.68C347.454 112.369 348.48 112.891 348.79 113.844L352.299 124.612ZM356.102 111.461C354.475 106.469 349.108 103.741 344.116 105.368L318.624 113.676L314.915 102.295C313.101 96.7275 305.551 96.0572 302.745 101.094L302.615 101.339L286.503 133.028C284.125 137.709 285.989 143.431 290.669 145.812L322.359 161.923C327.659 164.617 333.577 159.561 331.733 153.903L328.024 142.523L353.517 134.215C358.509 132.588 361.239 127.222 359.611 122.229L356.102 111.461Z" fill="#D3A221"/>
<path d="M296.862 209.39C298.037 211.051 300.321 211.516 302.058 210.414C303.796 209.312 304.349 207.048 303.348 205.277L303.246 205.108L293.082 189.08C290.756 185.411 286.238 183.784 282.107 185.131L150.491 228.022C146.36 229.368 143.668 233.344 143.95 237.679L145.181 256.619L145.199 256.816C145.433 258.836 147.214 260.34 149.267 260.206C151.32 260.073 152.891 258.352 152.863 256.318L152.855 256.12L151.625 237.181L151.624 237.18L151.621 237.025C151.636 236.257 152.135 235.575 152.874 235.334L284.49 192.443C285.279 192.186 286.142 192.496 286.588 193.198L296.752 209.226L296.862 209.39Z" fill="#D3A221"/>
<path d="M226.612 133.544C228.636 133.743 230.483 132.321 230.788 130.286C231.092 128.252 229.743 126.351 227.749 125.948L227.554 125.914L219.421 124.696L219.42 124.696C217.079 124.346 214.805 123.643 212.675 122.614L212.251 122.403L212.024 122.288L212.023 122.288C204.651 118.54 196.092 117.873 188.227 120.436C180.486 122.959 174.044 128.407 170.269 135.609L170.091 135.953L169.975 136.18C168.831 138.431 167.331 140.484 165.534 142.257L159.679 148.034L159.541 148.176C158.167 149.676 158.198 152.007 159.643 153.471C161.088 154.936 163.418 154.997 164.936 153.643L165.08 153.508L170.935 147.731C173.321 145.377 175.312 142.654 176.831 139.666L176.946 139.439L176.946 139.439C179.771 133.885 184.686 129.679 190.61 127.748C196.535 125.817 202.983 126.32 208.538 129.144L208.765 129.259L209.328 129.538C211.967 130.813 214.772 131.71 217.661 132.202L218.282 132.302L226.415 133.52L226.612 133.544Z" fill="#D3A221"/>
<path d="M185.763 125.284L190.511 139.853C191.169 141.872 193.339 142.975 195.358 142.317C197.377 141.659 198.481 139.489 197.823 137.47L193.075 122.901L193.009 122.714C192.281 120.814 190.183 119.799 188.227 120.436C186.271 121.074 185.175 123.13 185.706 125.094L185.763 125.284Z" fill="#D3A221"/>
<path d="M201.554 173.738L205.062 184.505C205.72 186.524 207.891 187.628 209.91 186.97C211.929 186.312 213.032 184.141 212.374 182.122L208.866 171.355C208.208 169.336 206.037 168.233 204.018 168.891C201.999 169.549 200.896 171.719 201.554 173.738Z" fill="#D3A221"/>
<path d="M212.081 206.04L213.835 211.424C214.493 213.443 216.663 214.546 218.682 213.888C220.701 213.23 221.805 211.06 221.147 209.041L219.392 203.657C218.734 201.638 216.564 200.535 214.545 201.193C212.526 201.851 211.423 204.021 212.081 206.04Z" fill="#D3A221"/>
<path d="M250.023 346.608L250.209 346.542C252.109 345.814 253.125 343.717 252.487 341.761C251.85 339.805 249.793 338.708 247.83 339.239L247.64 339.296L172.267 363.859C170.248 364.517 169.144 366.687 169.802 368.706C170.46 370.725 172.63 371.829 174.65 371.171L250.023 346.608Z" fill="#D3A221"/>
<path d="M346.93 315.027L347.117 314.961C349.017 314.234 350.032 312.136 349.395 310.18C348.758 308.224 346.701 307.127 344.737 307.659L344.548 307.715L269.174 332.278C267.155 332.936 266.052 335.107 266.71 337.126C267.368 339.145 269.538 340.248 271.557 339.59L346.93 315.027Z" fill="#D3A221"/>
<path d="M164.709 60.6788L168.218 71.4463C168.876 73.4655 171.047 74.5689 173.066 73.9109C175.085 73.2529 176.188 71.0826 175.53 69.0635L172.021 58.2959C171.363 56.2768 169.193 55.1734 167.174 55.8314C165.155 56.4894 164.051 58.6596 164.709 60.6788Z" fill="#D3A221"/>
</g>
</g>
</g>
<defs>
<clipPath id="clip0_4892_2141">
<rect width="350" height="350" fill="white" transform="translate(0.38916 108.835) rotate(-18.05)"/>
</clipPath>
</defs>
</svg>
