<svg width="373" height="354" viewBox="0 0 373 354" fill="none" xmlns="http://www.w3.org/2000/svg">
<g opacity="0.2" clip-path="url(#clip0_4892_2208)">
<path d="M253.613 52.8854C223.873 63.2703 199.291 84.7377 184.997 112.809C156.299 99.8184 123.693 98.4109 93.9825 108.88C46.1428 125.661 24.289 183.356 44.2365 240.223C65.8929 301.962 138.66 372.316 272.464 367.449C273.645 367.406 274.785 367.006 275.733 366.302C383.291 286.506 396.163 186.111 374.507 124.372C354.559 67.5053 301.453 36.1044 253.613 52.8854ZM270.247 355.844C143.925 359.8 75.4905 294.076 55.2455 236.361C37.4625 185.665 56.1751 134.505 97.8442 119.889C111.991 114.958 126.989 112.941 141.936 113.959C156.882 114.977 171.468 119.008 184.816 125.811C185.557 126.213 186.375 126.455 187.216 126.522C188.056 126.59 188.902 126.48 189.698 126.201C190.493 125.922 191.222 125.479 191.836 124.901C192.451 124.324 192.938 123.624 193.266 122.847C199.407 109.177 208.268 96.9011 219.306 86.766C230.345 76.6309 243.332 68.849 257.475 63.8944C299.144 49.2779 345.715 77.5375 363.498 128.234C383.743 185.949 371.361 280.021 270.247 355.844Z" fill="#D3A221"/>
<path d="M101.706 130.898C62.0737 144.8 52.5651 193.473 66.2548 232.5C66.7669 233.96 67.838 235.156 69.2324 235.827C70.6268 236.497 72.2303 236.586 73.6902 236.073C75.15 235.561 76.3467 234.49 77.0169 233.096C77.6871 231.702 77.7759 230.098 77.2638 228.638C65.4702 195.017 72.838 153.388 105.568 141.907C107.028 141.395 108.224 140.324 108.895 138.93C109.565 137.535 109.654 135.932 109.142 134.472C108.629 133.012 107.558 131.815 106.164 131.145C104.77 130.475 103.166 130.386 101.706 130.898Z" fill="#D3A221"/>
<path d="M88.3216 251.755C87.9225 251.101 87.3986 250.532 86.7796 250.081C86.1607 249.629 85.4589 249.304 84.7143 249.124C83.9697 248.944 83.1968 248.912 82.4399 249.03C81.683 249.149 80.9569 249.415 80.3029 249.814C79.649 250.213 79.08 250.737 78.6285 251.356C78.1771 251.975 77.8519 252.677 77.6717 253.422C77.4914 254.166 77.4596 254.939 77.578 255.696C77.6965 256.453 77.9628 257.179 78.3619 257.833C89.0627 275.148 102.951 290.275 119.289 302.414C119.9 302.891 120.599 303.241 121.347 303.445C122.094 303.648 122.875 303.701 123.643 303.6C124.411 303.499 125.151 303.245 125.82 302.855C126.489 302.465 127.073 301.945 127.539 301.326C128.006 300.707 128.344 300.002 128.534 299.251C128.725 298.5 128.764 297.719 128.649 296.953C128.534 296.187 128.268 295.451 127.866 294.789C127.464 294.127 126.934 293.552 126.308 293.096C111.146 281.842 98.256 267.813 88.3216 251.755Z" fill="#D3A221"/>
<path d="M270.973 188.977L236.845 200.948L235.914 141.528C235.87 138.903 234.942 136.369 233.28 134.337C231.618 132.304 229.319 130.891 226.755 130.327C224.191 129.763 221.511 130.081 219.149 131.229C216.788 132.376 214.883 134.287 213.741 136.651L162.651 242.96C161.652 245.04 161.291 247.369 161.616 249.653C161.94 251.937 162.935 254.074 164.473 255.793C166.012 257.512 168.026 258.737 170.26 259.311C172.494 259.886 174.849 259.786 177.026 259.022L211.154 247.051L212.086 306.472C212.09 309.108 213.002 311.664 214.668 313.708C216.334 315.752 218.653 317.16 221.234 317.697C223.37 318.178 225.598 318.054 227.667 317.338C229.107 316.827 230.43 316.034 231.561 315.007C232.691 313.98 233.607 312.739 234.254 311.356L285.349 205.039C286.348 202.96 286.708 200.631 286.383 198.347C286.059 196.062 285.065 193.926 283.526 192.207C281.988 190.487 279.974 189.263 277.739 188.688C275.505 188.113 273.151 188.214 270.973 188.977ZM223.732 306.312L222.802 246.897C222.777 245.047 222.312 243.23 221.446 241.596C220.58 239.961 219.337 238.556 217.821 237.496C216.305 236.436 214.559 235.752 212.726 235.499C210.893 235.247 209.027 235.435 207.281 236.046L173.153 248.017L224.257 141.692L225.187 201.125C225.215 202.974 225.682 204.79 226.551 206.423C227.419 208.056 228.662 209.459 230.179 210.516C231.696 211.574 233.443 212.256 235.275 212.506C237.108 212.756 238.973 212.566 240.718 211.954L274.846 199.982L223.732 306.312Z" fill="#D3A221"/>
</g>
<defs>
<clipPath id="clip0_4892_2208">
<rect width="350" height="350" fill="white" transform="translate(0.939453 116.79) rotate(-19.3296)"/>
</clipPath>
</defs>
</svg>
