<svg width="373" height="354" viewBox="0 0 373 354" fill="none" xmlns="http://www.w3.org/2000/svg">
<g opacity="0.2" clip-path="url(#clip0_4892_2217)">
<path d="M300.863 196.775C294.908 176.615 282.156 160.333 265.838 149.664C263.468 148.114 262.803 144.937 264.353 142.567C265.902 140.197 269.079 139.532 271.449 141.082C289.725 153.031 304.026 171.288 310.697 193.871C325.622 244.396 296.762 297.452 246.238 312.377C226.893 318.091 207.163 317.384 189.352 311.496L188.505 311.212L188.257 311.121C185.737 310.116 184.422 307.301 185.307 304.705C186.192 302.108 188.954 300.683 191.562 301.427L191.814 301.507L192.569 301.76C208.463 307.014 226.056 307.647 243.333 302.543C288.426 289.223 314.184 241.869 300.863 196.775Z" fill="#D3A221"/>
<path d="M127.732 247.919C112.807 197.394 141.667 144.337 192.191 129.412C211.072 123.835 230.319 124.379 247.792 129.881L248.622 130.147L248.871 130.235C251.405 131.203 252.761 133.999 251.913 136.608C251.066 139.216 248.325 140.681 245.706 139.974L245.453 139.899L244.712 139.662C229.121 134.752 211.958 134.265 195.096 139.246C150.003 152.566 124.245 199.92 137.566 245.014C143.307 264.45 155.363 280.285 170.841 290.957L171.581 291.461L171.796 291.614C173.965 293.242 174.499 296.304 172.965 298.578C171.432 300.853 168.394 301.506 166.071 300.105L165.849 299.964L165.02 299.399C147.682 287.444 134.163 269.687 127.732 247.919Z" fill="#D3A221"/>
<path d="M263.822 211.87C268.892 210.373 274.156 213.741 274.849 219.032L274.849 219.032C275.8 226.306 275.245 233.526 273.397 240.322L273.321 240.574C272.478 243.152 269.751 244.643 267.104 243.924C264.372 243.18 262.759 240.363 263.502 237.631L263.64 237.112C264.877 232.335 265.328 227.318 264.887 222.248L181.61 246.847C191.273 265.077 212.736 274.607 233.288 268.536C241.132 266.219 247.838 261.927 253.045 256.366L253.23 256.177C255.182 254.294 258.289 254.253 260.291 256.127C262.358 258.063 262.465 261.307 260.529 263.374L259.923 264.012C253.594 270.556 245.539 275.609 236.193 278.37C210.101 286.077 182.836 273.371 171.499 249.561L171.5 249.561C169.205 244.742 171.795 239.055 176.864 237.558L263.822 211.87Z" fill="#D3A221"/>
<path d="M194.508 204.663C192.789 198.842 186.675 195.516 180.853 197.236C175.032 198.955 171.706 205.069 173.426 210.891C174.228 213.606 172.677 216.458 169.961 217.26C167.246 218.062 164.394 216.511 163.592 213.796C160.268 202.543 166.696 190.726 177.948 187.402C189.201 184.078 201.018 190.506 204.342 201.758C205.144 204.474 203.593 207.325 200.878 208.128C198.162 208.93 195.311 207.379 194.508 204.663Z" fill="#D3A221"/>
<path d="M252.218 187.616C250.499 181.794 244.385 178.469 238.563 180.188C232.742 181.908 229.416 188.022 231.136 193.844C231.938 196.559 230.387 199.411 227.671 200.213C224.956 201.015 222.104 199.464 221.302 196.748C217.978 185.496 224.406 173.679 235.658 170.355C246.911 167.031 258.728 173.458 262.052 184.711C262.854 187.426 261.303 190.278 258.588 191.08C255.872 191.882 253.021 190.331 252.218 187.616Z" fill="#D3A221"/>
<path d="M179.156 103.381L167.058 62.4264C166.256 59.7109 167.807 56.8592 170.523 56.0571C173.238 55.2549 176.09 56.806 176.892 59.5216L188.99 100.476C189.792 103.192 188.241 106.043 185.526 106.845C182.81 107.648 179.958 106.096 179.156 103.381Z" fill="#D3A221"/>
<path d="M261.538 382.268L249.441 341.314C248.639 338.598 250.19 335.747 252.905 334.945C255.621 334.142 258.472 335.693 259.275 338.409L271.372 379.363C272.174 382.079 270.623 384.931 267.908 385.733C265.192 386.535 262.341 384.984 261.538 382.268Z" fill="#D3A221"/>
<path d="M98.7957 251.12L99.0505 251.052C101.687 250.416 104.388 251.954 105.165 254.585C105.942 257.216 104.511 259.974 101.952 260.873L101.701 260.954L60.7461 273.052C58.0306 273.854 55.1789 272.303 54.3768 269.588C53.5746 266.872 55.1257 264.02 57.8412 263.218L98.7957 251.12Z" fill="#D3A221"/>
<path d="M377.683 168.738L377.938 168.67C380.575 168.034 383.276 169.572 384.053 172.203C384.83 174.834 383.399 177.592 380.839 178.491L380.588 178.572L339.634 190.67C336.918 191.472 334.067 189.921 333.264 187.205C332.462 184.49 334.013 181.638 336.729 180.836L377.683 168.738Z" fill="#D3A221"/>
<path d="M130.229 307.094C132.194 305.225 135.302 305.207 137.291 307.096C139.279 308.986 139.418 312.091 137.652 314.149L137.475 314.344L122.643 329.95C120.692 332.003 117.447 332.085 115.395 330.135C113.342 328.184 113.26 324.939 115.21 322.886L130.042 307.281L130.229 307.094Z" fill="#D3A221"/>
<path d="M109.976 117.075C111.866 115.086 114.971 114.947 117.029 116.714L117.225 116.89L132.83 131.722L133.017 131.908C134.886 133.874 134.904 136.981 133.015 138.97C131.125 140.958 128.02 141.098 125.962 139.331L125.766 139.154L110.161 124.323L109.974 124.137C108.105 122.171 108.087 119.063 109.976 117.075Z" fill="#D3A221"/>
<path d="M305.416 302.82C307.306 300.831 310.411 300.692 312.469 302.459L312.665 302.635L328.27 317.467L328.457 317.654C330.326 319.619 330.344 322.727 328.455 324.716C326.565 326.704 323.46 326.843 321.402 325.077L321.206 324.9L305.601 310.068L305.414 309.882C303.545 307.916 303.527 304.808 305.416 302.82Z" fill="#D3A221"/>
<path d="M72.701 185.603C73.3434 182.937 75.9622 181.263 78.628 181.764L78.886 181.82L99.8169 186.861L100.072 186.929C102.673 187.697 104.243 190.379 103.601 193.046C102.958 195.713 100.339 197.386 97.6736 196.885L97.4157 196.83L76.4847 191.788L76.23 191.72C73.6284 190.952 72.0586 188.27 72.701 185.603Z" fill="#D3A221"/>
<path d="M334.83 248.744C335.473 246.077 338.092 244.404 340.757 244.905L341.015 244.96L361.946 250.002L362.2 250.07C364.802 250.838 366.372 253.52 365.729 256.187C365.087 258.854 362.468 260.527 359.802 260.026L359.544 259.971L338.614 254.929L338.359 254.861C335.758 254.093 334.188 251.411 334.83 248.744Z" fill="#D3A221"/>
<path d="M248.322 78.1648C248.985 75.4121 251.754 73.718 254.507 74.3811C257.26 75.0442 258.954 77.8133 258.291 80.5661L253.249 101.496C252.586 104.249 249.817 105.943 247.064 105.28C244.311 104.617 242.617 101.848 243.28 99.0952L248.322 78.1648Z" fill="#D3A221"/>
<path d="M288.811 56.6087L278.852 22.8952C278.05 20.1797 279.601 17.328 282.316 16.5258C285.032 15.7237 287.884 17.2748 288.686 19.9903L298.645 53.7039C299.447 56.4194 297.896 59.271 295.18 60.0732C292.464 60.8754 289.613 59.3243 288.811 56.6087Z" fill="#D3A221"/>
<path d="M304.153 28.4027L304.408 28.3344C307.045 27.6985 309.745 29.2364 310.522 31.8672C311.299 34.4979 309.868 37.2564 307.309 38.1554L307.058 38.2365L273.344 48.1954C270.629 48.9975 267.777 47.4464 266.975 44.7309C266.173 42.0153 267.724 39.1637 270.439 38.3615L304.153 28.4027Z" fill="#D3A221"/>
<path d="M73.0798 152.464L67.0174 131.941C66.2152 129.225 67.7663 126.373 70.4819 125.571C73.1974 124.769 76.0491 126.32 76.8512 129.036L82.9136 149.559C83.7158 152.274 82.1647 155.126 79.4491 155.928C76.7336 156.73 73.8819 155.179 73.0798 152.464Z" fill="#D3A221"/>
<path d="M83.7749 132.801L84.0303 132.733C86.6671 132.097 89.3672 133.635 90.1442 136.266C90.9213 138.896 89.4903 141.655 86.9314 142.554L86.6798 142.635L66.1567 148.698C63.4412 149.5 60.5896 147.949 59.7874 145.233C58.9852 142.518 60.5363 139.666 63.2519 138.864L83.7749 132.801Z" fill="#D3A221"/>
<path d="M362.53 313.588L356.468 293.065C355.666 290.35 357.217 287.498 359.933 286.696C362.648 285.894 365.5 287.445 366.302 290.16L372.364 310.683C373.166 313.399 371.615 316.251 368.9 317.053C366.184 317.855 363.333 316.304 362.53 313.588Z" fill="#D3A221"/>
<path d="M373.225 293.926L373.481 293.858C376.117 293.222 378.817 294.76 379.594 297.391C380.371 300.021 378.94 302.779 376.382 303.679L376.13 303.76L355.607 309.822C352.891 310.624 350.04 309.073 349.238 306.358C348.435 303.642 349.987 300.791 352.702 299.988L373.225 293.926Z" fill="#D3A221"/>
<path d="M300.796 85.2855C302.263 79.4877 309.53 77.4275 313.82 81.6979L313.819 81.6987L326.514 94.3346L344.023 98.1262L344.022 98.1264C350.032 99.4273 352.227 106.858 347.889 111.216L347.888 111.215L335.252 123.911L331.46 141.417L331.461 141.418C330.16 147.428 322.729 149.623 318.372 145.284L318.372 145.285L305.675 132.647L288.169 128.856L288.169 128.857C282.159 127.556 279.964 120.125 284.302 115.767L296.939 103.072L300.731 85.5644L300.796 85.2855ZM306.807 105.95C306.512 107.314 305.856 108.571 304.911 109.591L304.718 109.792L294.763 119.793L308.554 122.779L308.825 122.843C310.174 123.186 311.407 123.885 312.395 124.869L312.396 124.869L322.397 134.824L325.383 121.032C325.698 119.578 326.423 118.245 327.473 117.191L337.428 107.19L323.636 104.203L323.636 104.203C322.273 103.907 321.017 103.252 319.996 102.306L319.795 102.114L309.794 92.1584L306.807 105.95Z" fill="#D3A221"/>
<path d="M164.559 333.193C166.045 327.324 173.307 325.179 177.743 329.298L177.955 329.503L191.806 343.29L210.907 347.426L210.907 347.426L211.194 347.494C217.156 349.003 219.278 356.477 214.883 360.89L214.882 360.89L201.096 374.74L196.96 393.841L196.96 393.841C195.621 400.022 187.979 402.28 183.497 397.818L183.496 397.818L169.646 384.03L150.545 379.895C144.365 378.556 142.105 370.913 146.569 366.43L160.356 352.581L164.491 333.48L164.559 333.193ZM170.238 355.396L170.237 355.398C169.913 356.892 169.168 358.261 168.09 359.345L168.089 359.347L156.742 370.745L172.461 374.148L172.463 374.149L172.742 374.215C174.034 374.544 175.225 375.191 176.204 376.098L176.41 376.296L176.412 376.298L187.81 387.644L191.214 371.925L191.215 371.922L191.281 371.644C191.633 370.259 192.351 368.991 193.361 367.976L193.363 367.974L204.709 356.575L188.991 353.172L188.988 353.172C187.495 352.848 186.125 352.103 185.041 351.025L185.04 351.023L173.641 339.677L170.238 355.396Z" fill="#D3A221"/>
</g>
<defs>
<clipPath id="clip0_4892_2217">
<rect width="350" height="350" fill="white" transform="translate(0.592773 99.7456) rotate(-16.4569)"/>
</clipPath>
</defs>
</svg>
