<svg width="373" height="354" viewBox="0 0 373 354" fill="none" xmlns="http://www.w3.org/2000/svg">
<g opacity="0.2" clip-path="url(#clip0_4892_2264)">
<path d="M108.346 259.916C108.961 259.958 109.557 259.892 110.117 259.735C112.179 259.157 113.754 257.333 113.911 255.073L121.149 150.787C121.172 150.458 121.164 150.127 121.124 149.8L117.647 121.068C116.43 111.016 119.774 101.081 126.821 93.81L152.056 67.7752C162.249 57.259 177.896 54.5991 190.991 61.1544L220.91 76.1332C226.728 79.0459 230.909 84.3503 232.382 90.6875C233.856 97.0245 232.444 103.63 228.508 108.811L209.669 133.61C206.265 138.09 200.178 139.449 195.191 136.839L181.627 129.74C175.69 126.633 173.376 119.268 176.465 113.324L177.856 110.651C178.81 108.818 178.591 106.594 177.3 104.982C176.007 103.369 173.885 102.672 171.888 103.202L141.434 111.303C138.628 112.041 136.994 114.901 137.734 117.685C138.474 120.47 141.332 122.126 144.116 121.385L164.87 115.864C163.676 124.642 167.759 133.62 175.69 138.352C170.338 142.43 163.774 144.743 156.933 144.848L155.531 144.869C152.649 144.914 150.351 147.285 150.395 150.165C150.438 153.046 152.81 155.345 155.691 155.301L157.093 155.279C159.579 155.241 162.036 154.979 164.442 154.514L176.34 191.719C186.008 221.949 192.305 253.309 195.055 284.926C195.304 287.796 197.833 289.92 200.704 289.67C201.036 289.641 201.358 289.582 201.667 289.495C204.033 288.831 205.67 286.56 205.448 284.022C204.721 275.667 203.747 267.33 202.541 259.026C223.332 240.719 249.901 230.018 277.668 228.828C280.545 228.707 282.779 226.271 282.656 223.393C282.532 220.515 280.099 218.282 277.221 218.405C249.248 219.605 222.394 229.701 200.628 247.032C197.188 227.234 192.393 207.667 186.277 188.541L174.361 151.282C178.47 149.354 182.266 146.765 185.588 143.59L190.352 146.084C199.861 151.061 211.479 148.471 217.974 139.922L236.814 115.123C242.633 107.463 244.721 97.6956 242.542 88.326C240.364 78.9561 234.18 71.1119 225.579 66.8057L195.659 51.8272C178.474 43.2237 157.94 46.7136 144.563 60.5162L119.329 86.551C110.08 96.0935 105.692 109.132 107.288 122.324L110.707 150.563L103.504 254.35C103.304 257.224 105.472 259.716 108.346 259.916Z" fill="#D3A221"/>
<path d="M385.522 339.311L385.128 339.422C375.384 342.155 365.157 341.597 355.854 337.91C356.116 337.646 356.381 337.386 356.641 337.121C358.657 335.062 358.623 331.76 356.566 329.744C354.508 327.728 351.206 327.762 349.189 329.82C331.395 347.982 309.545 360.674 286.008 367.277C260.8 374.349 233.66 374.434 207.53 366.766L132.501 344.749C118.41 340.614 108.92 326.981 109.938 312.331L112.316 278.072C112.516 275.198 110.347 272.707 107.473 272.508C104.597 272.309 102.107 274.476 101.908 277.35L99.5301 311.609C98.8702 321.113 101.504 330.654 106.946 338.474C112.388 346.293 120.421 352.077 129.562 354.76L204.592 376.777C232.642 385.007 261.767 384.917 288.826 377.325C310.23 371.319 330.34 360.618 347.599 345.631C360.14 351.886 374.422 353.261 387.946 349.467L388.34 349.356C391.114 348.578 392.731 345.698 391.953 342.925C391.175 340.151 388.296 338.533 385.522 339.311Z" fill="#D3A221"/>
<path d="M351.983 182.653C350.13 180.447 346.843 180.16 344.633 182.013C331.887 192.716 322.773 206.844 318.277 222.867L318.212 223.099C312.382 221.482 306.427 220.257 300.411 219.45C297.553 219.065 294.93 221.071 294.547 223.925C294.163 226.781 296.167 229.406 299.023 229.789C307.744 230.961 316.328 233.073 324.534 236.069L337.665 240.864C338.732 241.254 339.843 241.273 340.86 240.988C342.421 240.55 343.756 239.392 344.354 237.753C345.342 235.047 343.949 232.052 341.244 231.064L328.154 226.285L328.322 225.686C332.249 211.691 340.21 199.352 351.343 190.002C353.548 188.149 353.835 184.859 351.983 182.653Z" fill="#D3A221"/>
<path d="M187.332 334.395C184.755 333.108 181.622 334.152 180.334 336.73C179.047 339.307 180.092 342.44 182.669 343.727C199.589 352.181 218.123 355.992 237.759 355.055C238.161 355.036 238.551 354.971 238.924 354.867C241.213 354.225 242.839 352.07 242.721 349.596C242.584 346.718 240.14 344.497 237.262 344.634C219.432 345.485 202.634 342.04 187.332 334.395Z" fill="#D3A221"/>
<path d="M234.106 266.566L231.52 269.091C229.46 271.105 229.421 274.407 231.434 276.468C232.815 277.881 234.802 278.343 236.58 277.844C237.394 277.616 238.163 277.186 238.811 276.554L241.396 274.028C252.424 263.256 267.565 257.744 282.938 258.906C285.811 259.123 288.316 256.971 288.533 254.098C288.75 251.225 286.597 248.721 283.725 248.503C265.365 247.114 247.279 253.697 234.106 266.566Z" fill="#D3A221"/>
<path d="M257.165 145.362C259.187 147.762 262.321 148.727 265.344 147.879L274.292 145.368L282.322 173.99C283.1 176.764 285.979 178.382 288.754 177.604C291.528 176.825 293.145 173.946 292.367 171.172L283.653 140.115C282.476 135.919 278.105 133.464 273.909 134.641L267.884 136.331L282.771 105.04L311.763 124.02L305.737 125.711C301.541 126.888 299.086 131.26 300.263 135.455L308.976 166.512C309.754 169.286 312.633 170.904 315.408 170.125C318.182 169.347 319.799 166.468 319.021 163.694L310.991 135.072L319.939 132.561C322.961 131.713 325.136 129.259 325.615 126.157C326.094 123.054 324.76 120.059 322.133 118.339L286.062 94.7234C284.152 93.4728 281.796 93.1094 279.598 93.7254C279.598 93.7256 279.598 93.7256 279.597 93.7258C277.399 94.3424 275.576 95.8775 274.594 97.94L256.071 136.874C254.723 139.709 255.142 142.961 257.165 145.362Z" fill="#D3A221"/>
<path d="M240.798 184.987L248.093 210.988C248.871 213.762 251.75 215.38 254.524 214.601C257.299 213.823 258.916 210.944 258.138 208.17L252.046 186.459L261.036 183.937C263.287 183.306 264.972 181.405 265.328 179.095C265.686 176.784 264.652 174.464 262.695 173.182L230.186 151.899C228.742 150.953 226.96 150.678 225.297 151.144C223.636 151.611 222.256 152.773 221.515 154.332L204.821 189.42C203.817 191.532 204.142 194.051 205.648 195.839C207.154 197.626 209.582 198.373 211.832 197.742L220.823 195.22L226.914 216.93C227.692 219.704 230.571 221.322 233.345 220.544C236.12 219.765 237.737 216.886 236.959 214.112L229.664 188.111C228.773 184.938 225.468 183.081 222.295 183.971L218.454 185.049L228.742 163.424L248.779 176.54L244.938 177.618C241.765 178.508 239.907 181.813 240.798 184.987Z" fill="#D3A221"/>
</g>
<defs>
<clipPath id="clip0_4892_2264">
<rect width="350" height="350" fill="white" transform="translate(0.232422 94.7795) rotate(-15.6723)"/>
</clipPath>
</defs>
</svg>
