<svg width="68" height="68" viewBox="0 0 68 68" fill="none" xmlns="http://www.w3.org/2000/svg">
<path d="M27.5367 27.463H28.1905V28.1169C28.1905 28.4779 28.4833 28.7707 28.8444 28.7707C29.2054 28.7707 29.4982 28.4779 29.4982 28.1169V27.463H30.152C30.5131 27.463 30.8059 27.1702 30.8059 26.8092C30.8059 26.4481 30.5131 26.1553 30.152 26.1553H29.4982V25.5015C29.4982 25.1404 29.2054 24.8477 28.8444 24.8477C28.4833 24.8477 28.1905 25.1404 28.1905 25.5015V26.1553H27.5367C27.1756 26.1553 26.8828 26.4481 26.8828 26.8092C26.8828 27.1702 27.1755 27.463 27.5367 27.463Z" fill="#D3A221"/>
<path d="M44.5817 50.6889L38.4878 48.0773C36.5479 47.246 34.9509 46.0335 33.7353 44.4739V42.8334C35.7261 41.3415 37.0165 38.9636 37.0165 36.29V24.2817C37.0165 24.0288 36.8707 23.7986 36.6421 23.6906C35.295 23.0539 31.6528 22.2324 28.8432 22.2324C25.9236 22.2324 22.3335 23.0818 21.045 23.6908C20.8163 23.7988 20.6705 24.0289 20.6705 24.2818V36.2901C20.6705 38.8179 21.8243 41.081 23.6324 42.5813V44.1181C21.8712 46.1933 20.3083 47.562 19.1056 48.0773L13.0119 50.6889C9.40056 52.2366 7.40332 58.042 7.40332 61.4632C7.40332 61.8244 7.69611 62.117 8.05717 62.117H49.5365C49.8977 62.117 50.1904 61.8244 50.1904 61.4632C50.1902 58.042 48.193 52.2365 44.5817 50.6889ZM29.6987 49.0094L33.0278 45.677C33.4387 46.1623 33.8842 46.6146 34.3637 47.0329L31.7716 51.3006L29.6987 49.0094ZM21.9782 30.7324H30.2182C28.7463 31.7629 25.997 33.1095 21.9782 32.7588V30.7324ZM35.7088 31.918C34.6631 31.6564 33.9105 31.1747 33.4031 30.7324H35.7088V31.918ZM28.9893 23.5408C31.3647 23.5657 34.3553 24.2153 35.7088 24.7181V29.4247H21.9782V24.7186C23.2953 24.2301 26.3562 23.512 28.9893 23.5408ZM21.9782 36.2901V34.0703C22.4308 34.1069 22.8702 34.1263 23.2937 34.1263C27.8942 34.126 30.7567 32.0958 31.9066 31.0729C32.5178 31.7842 33.7297 32.8509 35.709 33.2563V36.2901C35.709 40.0756 32.6292 43.1555 28.8437 43.1555C27.3131 43.1555 25.8981 42.6516 24.7551 41.8016C24.7153 41.7606 24.6697 41.7265 24.6205 41.6969C23.0138 40.4392 21.9782 38.4839 21.9782 36.2901ZM32.4277 43.6335V44.4274L28.8023 48.0563L24.9401 44.0989V43.469C27.2172 44.7122 30.0152 44.8156 32.4277 43.6335ZM24.3148 45.3306L27.9346 49.0397L26.2269 51.2811L23.0327 46.7145C23.4469 46.2978 23.8746 45.8356 24.3148 45.3306ZM13.5271 51.8909L19.6207 49.2793C20.3626 48.9614 21.1821 48.4059 22.0718 47.6223L25.6685 52.7643C25.92 53.1236 26.4534 53.1414 26.7243 52.7857L26.9214 52.5271L25.4156 60.8093H14.382V58.0606C14.382 57.6994 14.0892 57.4067 13.7281 57.4067C13.3671 57.4067 13.0743 57.6994 13.0743 58.0606V60.8093H8.73429C8.97111 57.3999 10.981 52.9821 13.5271 51.8909ZM26.7447 60.8093L28.6672 50.2361L28.8401 50.0094L28.8965 50.0719L30.8488 60.8093H26.7447ZM43.8712 60.8093V58.0606C43.8712 57.6994 43.5785 57.4067 43.2174 57.4067C42.8562 57.4067 42.5635 57.6994 42.5635 58.0606V60.8093H32.1779L30.5599 51.9102L31.3904 52.8282C31.6845 53.1532 32.2079 53.1017 32.4341 52.729L35.3996 47.8466C36.1851 48.4017 37.0432 48.881 37.9727 49.2793L44.0666 51.8909C46.6128 52.982 48.6226 57.3998 48.8593 60.8093H43.8712Z" fill="#D3A221"/>
<path d="M54.2043 23.4472V21.647H56.0044C56.3656 21.647 56.6583 21.3542 56.6583 20.9932V18.539C56.6583 18.178 56.3656 17.8852 56.0044 17.8852H54.2043V16.085C54.2043 15.7239 53.9116 15.4312 53.5504 15.4312H51.0961C50.735 15.4312 50.4423 15.7239 50.4423 16.085V17.8852H48.6421C48.2809 17.8852 47.9883 18.178 47.9883 18.539V20.9932C47.9883 21.3542 48.2809 21.647 48.6421 21.647H50.4423V23.4472C50.4423 23.8082 50.735 24.101 51.0961 24.101H53.5504C53.9116 24.101 54.2043 23.8082 54.2043 23.4472ZM52.8966 20.9932V22.7933H51.75V20.9932C51.75 20.6321 51.4573 20.3393 51.0961 20.3393H49.296V19.1929H51.0961C51.4573 19.1929 51.75 18.9001 51.75 18.539V16.7388H52.8966V18.539C52.8966 18.9001 53.1892 19.1929 53.5504 19.1929H55.3506V20.3393H53.5504C53.1892 20.3393 52.8966 20.6321 52.8966 20.9932Z" fill="#D3A221"/>
<path d="M59.7343 19.9754C59.7343 15.889 56.4096 12.5645 52.3231 12.5645C48.2367 12.5645 44.9121 15.889 44.9121 19.9754C44.9121 20.3365 45.2048 20.6293 45.566 20.6293C45.9271 20.6293 46.2198 20.3365 46.2198 19.9754C46.2198 16.6101 48.9576 13.8721 52.3231 13.8721C55.6885 13.8721 58.4266 16.6101 58.4266 19.9754C58.4266 23.3408 55.6885 26.0787 52.3231 26.0787C51.9619 26.0787 51.6692 26.3715 51.6692 26.7325C51.6692 27.0936 51.9619 27.3864 52.3231 27.3864C56.4096 27.3864 59.7343 24.0618 59.7343 19.9754Z" fill="#D3A221"/>
<path d="M40.4868 31.3863H52.286C58.4556 31.3863 63.4746 26.367 63.4746 20.1975C63.4746 14.0281 58.4554 9.00879 52.286 9.00879C46.1163 9.00879 41.097 14.028 41.097 20.1975C41.097 22.9793 42.0999 25.5949 43.937 27.6465L40.1242 30.1884C39.8845 30.3482 39.7777 30.6463 39.8611 30.9219C39.9446 31.1977 40.1987 31.3863 40.4868 31.3863ZM45.3123 28.3012C45.6593 28.0701 45.7035 27.5776 45.405 27.288C43.4703 25.4101 42.4048 22.8919 42.4048 20.1974C42.4048 14.7489 46.8375 10.3164 52.2861 10.3164C57.7345 10.3164 62.167 14.7489 62.167 20.1974C62.167 25.6458 57.7344 30.0785 52.2861 30.0785H42.6465L45.3123 28.3012Z" fill="#D3A221"/>
<path d="M13.0252 20.9245C16.27 20.9245 18.9099 18.2847 18.9099 15.0399C18.9099 11.7951 16.27 9.15527 13.0252 9.15527C9.78046 9.15527 7.14062 11.7951 7.14062 15.0399C7.14062 18.2847 9.78046 20.9245 13.0252 20.9245ZM13.0252 10.463C15.549 10.463 17.6022 12.5162 17.6022 15.0399C17.6022 17.5636 15.549 19.6168 13.0252 19.6168C10.5015 19.6168 8.44832 17.5636 8.44832 15.0399C8.44832 12.5162 10.5015 10.463 13.0252 10.463Z" fill="#D3A221"/>
<path d="M55.5252 39.2324C53.0015 39.2324 50.9482 41.2856 50.9482 43.8093C50.9482 46.3331 53.0015 48.3863 55.5252 48.3863C58.0489 48.3863 60.1021 46.3331 60.1021 43.8093C60.1021 41.2856 58.0489 39.2324 55.5252 39.2324ZM55.5252 47.0786C53.7225 47.0786 52.2559 45.612 52.2559 43.8093C52.2559 42.0067 53.7225 40.5401 55.5252 40.5401C57.3278 40.5401 58.7944 42.0067 58.7944 43.8093C58.7944 45.612 57.328 47.0786 55.5252 47.0786Z" fill="#D3A221"/>
<path d="M60.429 35.3092C60.9707 35.3092 61.4098 34.8701 61.4098 34.3284C61.4098 33.7868 60.9707 33.3477 60.429 33.3477C59.8873 33.3477 59.4482 33.7868 59.4482 34.3284C59.4482 34.8701 59.8873 35.3092 60.429 35.3092Z" fill="#D3A221"/>
<path d="M42.775 42.5016C43.3166 42.5016 43.7557 42.0625 43.7557 41.5208C43.7557 40.9791 43.3166 40.54 42.775 40.54C42.2333 40.54 41.7942 40.9791 41.7942 41.5208C41.7942 42.0625 42.2333 42.5016 42.775 42.5016Z" fill="#D3A221"/>
<path d="M36.8899 8.50158C37.4316 8.50158 37.8707 8.06247 37.8707 7.52081C37.8707 6.97914 37.4316 6.54004 36.8899 6.54004C36.3483 6.54004 35.9092 6.97914 35.9092 7.52081C35.9092 8.06247 36.3483 8.50158 36.8899 8.50158Z" fill="#D3A221"/>
<path d="M25.1214 15.0402C25.6631 15.0402 26.1022 14.601 26.1022 14.0594C26.1022 13.5177 25.6631 13.0786 25.1214 13.0786C24.5797 13.0786 24.1406 13.5177 24.1406 14.0594C24.1406 14.601 24.5797 15.0402 25.1214 15.0402Z" fill="#D3A221"/>
<path d="M8.12139 26.8092C8.66306 26.8092 9.10216 26.3701 9.10216 25.8284C9.10216 25.2868 8.66306 24.8477 8.12139 24.8477C7.57973 24.8477 7.14062 25.2868 7.14062 25.8284C7.14062 26.3701 7.57973 26.8092 8.12139 26.8092Z" fill="#D3A221"/>
<path d="M15.3138 39.8863C15.8554 39.8863 16.2945 39.4472 16.2945 38.9056C16.2945 38.3639 15.8554 37.9248 15.3138 37.9248C14.7721 37.9248 14.333 38.3639 14.333 38.9056C14.333 39.4472 14.7721 39.8863 15.3138 39.8863Z" fill="#D3A221"/>
<path d="M6.15948 52.963C6.70114 52.963 7.14025 52.5239 7.14025 51.9822C7.14025 51.4406 6.70114 51.0015 6.15948 51.0015C5.61782 51.0015 5.17871 51.4406 5.17871 51.9822C5.17871 52.5239 5.61782 52.963 6.15948 52.963Z" fill="#D3A221"/>
<path d="M57.8138 58.194C58.3554 58.194 58.7945 57.7549 58.7945 57.2132C58.7945 56.6715 58.3554 56.2324 57.8138 56.2324C57.2721 56.2324 56.833 56.6715 56.833 57.2132C56.833 57.7549 57.2721 58.194 57.8138 58.194Z" fill="#D3A221"/>
</svg>
