<svg width="68" height="68" viewBox="0 0 68 68" fill="none" xmlns="http://www.w3.org/2000/svg">
<path d="M38.9842 33.0095H36.8V30.8255C36.8 29.2814 35.544 28.0254 34 28.0254C32.4561 28.0254 31.1999 29.2814 31.1999 30.8255V33.0096H29.0159C27.4719 33.0096 26.2158 34.2657 26.2158 35.8098C26.2158 37.3537 27.4719 38.6097 29.0159 38.6097H31.1999V40.7939C31.1999 42.3378 32.456 43.5938 34 43.5938C35.5441 43.5938 36.8 42.3376 36.8 40.7939V38.6097H38.9842C40.5282 38.6097 41.7843 37.3535 41.7843 35.8098C41.7843 34.2657 40.5282 33.0095 38.9842 33.0095ZM38.9842 37.163H36.0766C35.6771 37.163 35.3532 37.4868 35.3532 37.8863V40.7939C35.3532 41.54 34.7462 42.1471 34 42.1471C33.2537 42.1471 32.6467 41.54 32.6467 40.7939V37.8863C32.6467 37.4867 32.3227 37.163 31.9233 37.163H29.0159C28.2696 37.163 27.6626 36.5559 27.6626 35.8098C27.6626 35.0635 28.2696 34.4564 29.0159 34.4564H31.9233C32.3229 34.4564 32.6467 34.1324 32.6467 33.733V30.8255C32.6467 30.0792 33.2537 29.4722 34 29.4722C34.7462 29.4722 35.3532 30.0792 35.3532 30.8255V33.733C35.3532 34.1326 35.6771 34.4564 36.0766 34.4564H38.9842C39.7303 34.4564 40.3375 35.0633 40.3375 35.8098C40.3375 36.5558 39.7303 37.163 38.9842 37.163Z" fill="#D3A221"/>
<path d="M67.2767 56.7886H63.9256C64.666 55.948 65.1064 54.8498 65.1064 53.6779V18.2309C65.1064 15.6383 62.9971 13.5288 60.4043 13.5288H7.59585C5.00321 13.5288 2.89372 15.6383 2.89372 18.2309V53.6779C2.89372 54.8498 3.3341 55.9482 4.07454 56.7886H0.723393C0.323859 56.7886 0 57.1124 0 57.5119C0 62.6975 4.21869 66.9162 9.40426 66.9162H58.5957C63.7813 66.9162 68 62.6975 68 57.5119C68.0001 57.1123 67.6763 56.7886 67.2767 56.7886ZM4.34051 53.6779V18.2309C4.34051 16.4359 5.80081 14.9756 7.59585 14.9756H60.4044C62.1993 14.9756 63.6598 16.4359 63.6598 18.2309V53.6779C63.6598 55.1043 62.7172 56.3721 61.3601 56.7886H40.5108C40.1112 56.7886 39.7874 57.1124 39.7874 57.5119V59.6821H28.2129V57.5119C28.2129 57.1123 27.8889 56.7886 27.4895 56.7886H6.63985C5.28299 56.3718 4.34051 55.1043 4.34051 53.6779ZM58.5959 65.4694H9.40426C5.26021 65.4694 1.84588 62.2856 1.47941 58.2353H26.766V60.4055C26.766 60.805 27.09 61.1289 27.4894 61.1289H40.5106C40.9103 61.1289 41.234 60.8049 41.234 60.4055V58.2353H66.5204C66.1541 62.2855 62.7399 65.4694 58.5959 65.4694Z" fill="#D3A221"/>
<path d="M58.584 19.1714C55.1376 19.1714 12.8395 19.1714 9.40428 19.1714C9.00475 19.1714 8.68089 19.4954 8.68089 19.8948C8.68118 51.6878 8.67295 51.7547 8.69588 51.8715C8.695 51.9142 8.69647 52.0859 8.82577 52.2394C8.95067 52.3877 9.11216 52.4207 9.15551 52.4281C9.33596 52.4592 6.97225 52.4488 58.5959 52.4481C58.9956 52.4481 59.3193 52.1241 59.3193 51.7247C59.3187 18.334 59.3563 19.799 59.2388 19.5696C59.2065 19.5098 59.1267 19.3808 58.9689 19.2836C58.8071 19.1842 58.6519 19.1726 58.584 19.1714ZM10.1277 36.5333H14.8373L10.1277 48.0457V36.5333ZM57.5254 20.6182L51.7118 35.0865H45.9122C45.5368 28.8404 40.3386 23.8735 34.0001 23.8735C27.6616 23.8735 22.4634 28.8404 22.0878 35.0865H16.9925L22.9113 20.6182H57.5254ZM57.8725 35.0865H53.2712L57.8725 23.6356V35.0865ZM44.4895 35.8099C44.4895 41.5936 39.784 46.2993 34.0001 46.2993C28.2162 46.2993 23.5107 41.5936 23.5107 35.8099C23.5107 30.026 28.2162 25.3203 34.0001 25.3203C39.784 25.3203 44.4895 30.026 44.4895 35.8099ZM22.0878 36.5333C22.4633 42.779 27.6615 47.7461 34.0001 47.7461C40.3387 47.7461 45.5368 42.779 45.9122 36.5333H51.1305L45.3168 51.0014H10.482L16.4008 36.5333H22.0878ZM46.8763 51.0013L52.69 36.5331H57.8725V51.0013H46.8763ZM21.348 20.6182L15.4292 35.0865H10.1277V20.6182H21.348Z" fill="#D3A221"/>
<path d="M17.7238 5.42667C18.3232 5.42667 18.809 4.94083 18.809 4.34151C18.809 3.74219 18.3232 3.25635 17.7238 3.25635C17.1245 3.25635 16.6387 3.74219 16.6387 4.34151C16.6387 4.94083 17.1245 5.42667 17.7238 5.42667Z" fill="#D3A221"/>
<path d="M25.6809 10.4902C26.2802 10.4902 26.766 10.0043 26.766 9.40499C26.766 8.80567 26.2802 8.31982 25.6809 8.31982C25.0815 8.31982 24.5957 8.80567 24.5957 9.40499C24.5957 10.0043 25.0815 10.4902 25.6809 10.4902Z" fill="#D3A221"/>
<path d="M43.0422 8.32023C43.6415 8.32023 44.1274 7.83439 44.1274 7.23507C44.1274 6.63575 43.6415 6.1499 43.0422 6.1499C42.4429 6.1499 41.957 6.63575 41.957 7.23507C41.957 7.83439 42.4429 8.32023 43.0422 8.32023Z" fill="#D3A221"/>
<path d="M64.7443 13.3842C65.3437 13.3842 65.8295 12.8984 65.8295 12.299C65.8295 11.6997 65.3437 11.2139 64.7443 11.2139C64.145 11.2139 63.6592 11.6997 63.6592 12.299C63.6592 12.8984 64.145 13.3842 64.7443 13.3842Z" fill="#D3A221"/>
<path d="M9.0427 10.4907C10.8377 10.4907 12.298 9.03036 12.298 7.23532C12.298 5.44029 10.8377 3.97998 9.0427 3.97998C7.24766 3.97998 5.78735 5.44029 5.78735 7.23532C5.78735 9.03022 7.24766 10.4907 9.0427 10.4907ZM9.0427 5.42662C10.04 5.42662 10.8513 6.23788 10.8513 7.23518C10.8513 8.23232 10.04 9.04373 9.0427 9.04373C8.04541 9.04373 7.23414 8.23247 7.23414 7.23532C7.23414 6.23803 8.04541 5.42662 9.0427 5.42662Z" fill="#D3A221"/>
<path d="M54.979 9.76715C57.3724 9.76715 59.3194 7.82002 59.3194 5.42679C59.3194 3.03355 57.3723 1.08643 54.979 1.08643C52.5858 1.08643 50.6387 3.03355 50.6387 5.42679C50.6387 7.82002 52.5858 9.76715 54.979 9.76715ZM54.979 2.53292C56.5745 2.53292 57.8726 3.831 57.8726 5.42649C57.8726 7.02198 56.5745 8.32007 54.979 8.32007C53.3835 8.32007 52.0855 7.02198 52.0855 5.42649C52.0855 3.83115 53.3835 2.53292 54.979 2.53292Z" fill="#D3A221"/>
</svg>
