<svg width="68" height="68" viewBox="0 0 68 68" fill="none" xmlns="http://www.w3.org/2000/svg">
<path d="M25.4998 18.6357H12.4229C12.0618 18.6357 11.769 18.9285 11.769 19.2896V23.8665C11.769 24.2276 12.0618 24.5204 12.4229 24.5204H13.7306V56.5588C13.7306 59.4431 16.0771 61.7896 18.9614 61.7896C21.8456 61.7896 24.1921 59.4431 24.1921 56.5588C24.1921 55.5255 24.1921 25.6169 24.1921 24.5204H25.4998C25.8609 24.5204 26.1537 24.2276 26.1537 23.8665V19.2896C26.1537 18.9285 25.8609 18.6357 25.4998 18.6357ZM18.9614 60.4819C16.7982 60.4819 15.0383 58.722 15.0383 56.5588V41.1372L22.8844 33.2912V56.5588C22.8844 58.722 21.1245 60.4819 18.9614 60.4819ZM22.8844 31.4418L15.0383 39.288V24.5204H22.8844V31.4418ZM24.846 23.2127C23.8078 23.2127 16.0039 23.2127 13.0767 23.2127V19.9434H14.3844V21.2511C14.3844 21.6122 14.6772 21.905 15.0383 21.905C15.3993 21.905 15.6921 21.6122 15.6921 21.2511V19.9434H16.9998V21.2511C16.9998 21.6122 17.2926 21.905 17.6537 21.905C18.0147 21.905 18.3075 21.6122 18.3075 21.2511V19.9434H19.6152V21.2511C19.6152 21.6122 19.908 21.905 20.269 21.905C20.6301 21.905 20.9229 21.6122 20.9229 21.2511V19.9434H22.2306V21.2511C22.2306 21.6122 22.5234 21.905 22.8844 21.905C23.2455 21.905 23.5383 21.6122 23.5383 21.2511V19.9434H24.846V23.2127Z" fill="#D3A221"/>
<path d="M41.8458 18.6357H28.7688C28.4078 18.6357 28.115 18.9285 28.115 19.2896V23.8665C28.115 24.2276 28.4078 24.5204 28.7688 24.5204H30.0765V56.5588C30.0765 59.4431 32.4231 61.7896 35.3073 61.7896C38.1915 61.7896 40.5381 59.4431 40.5381 56.5588V24.5204H41.8458C42.2069 24.5204 42.4996 24.2276 42.4996 23.8665V19.2896C42.4996 18.9285 42.2069 18.6357 41.8458 18.6357ZM35.3073 60.4819C33.1441 60.4819 31.3842 58.722 31.3842 56.5588V41.1372L39.2304 33.291V56.5588C39.2304 58.722 37.4705 60.4819 35.3073 60.4819ZM39.2304 31.4418L31.3842 39.288V24.5204H39.2304V31.4418ZM41.1919 23.2127C39.7055 23.2127 30.9022 23.2127 29.4227 23.2127V19.9434H30.7304V21.2511C30.7304 21.6122 31.0232 21.905 31.3842 21.905C31.7453 21.905 32.0381 21.6122 32.0381 21.2511V19.9434H33.3458V21.2511C33.3458 21.6122 33.6384 21.905 33.9996 21.905C34.3608 21.905 34.6535 21.6122 34.6535 21.2511V19.9434H35.9611V21.2511C35.9611 21.6122 36.2538 21.905 36.615 21.905C36.9762 21.905 37.2688 21.6122 37.2688 21.2511V19.9434H38.5765V21.2511C38.5765 21.6122 38.8692 21.905 39.2304 21.905C39.5916 21.905 39.8842 21.6122 39.8842 21.2511V19.9434H41.1919V23.2127Z" fill="#D3A221"/>
<path d="M58.1922 18.6357H45.1153C44.7541 18.6357 44.4614 18.9285 44.4614 19.2896V23.8665C44.4614 24.2276 44.7541 24.5204 45.1153 24.5204H46.423V56.5588C46.423 59.4431 48.7695 61.7896 51.6537 61.7896C54.538 61.7896 56.8845 59.4431 56.8845 56.5588V24.5204H58.1922C58.5534 24.5204 58.846 24.2276 58.846 23.8665V19.2896C58.846 18.9285 58.5534 18.6357 58.1922 18.6357ZM51.6537 60.4819C49.4905 60.4819 47.7307 58.722 47.7307 56.5588V41.1372L55.5768 33.291V56.5588C55.5768 58.722 53.8169 60.4819 51.6537 60.4819ZM55.5768 31.4418L47.7307 39.288V24.5204H55.5768V31.4418ZM57.5383 23.2127C56.5 23.2127 48.6963 23.2127 45.7691 23.2127V19.9434H47.0768V21.2511C47.0768 21.6122 47.3695 21.905 47.7307 21.905C48.0918 21.905 48.3845 21.6122 48.3845 21.2511V19.9434H49.6922V21.2511C49.6922 21.6122 49.9849 21.905 50.346 21.905C50.7072 21.905 50.9999 21.6122 50.9999 21.2511V19.9434H52.3076V21.2511C52.3076 21.6122 52.6002 21.905 52.9614 21.905C53.3226 21.905 53.6153 21.6122 53.6153 21.2511V19.9434H54.923V21.2511C54.923 21.6122 55.2156 21.905 55.5768 21.905C55.938 21.905 56.2307 21.6122 56.2307 21.2511V19.9434H57.5383V23.2127Z" fill="#D3A221"/>
<path d="M59.8268 8.17432C58.2045 8.17432 56.8845 9.49417 56.8845 11.1166C56.8845 12.7391 58.2045 14.0589 59.8268 14.0589C61.4492 14.0589 62.7691 12.7391 62.7691 11.1166C62.7691 9.49417 61.4492 8.17432 59.8268 8.17432ZM59.8268 12.7512C58.9254 12.7512 58.1922 12.018 58.1922 11.1166C58.1922 10.2152 58.9254 9.48201 59.8268 9.48201C60.7282 9.48201 61.4614 10.2152 61.4614 11.1166C61.4614 12.018 60.7282 12.7512 59.8268 12.7512Z" fill="#D3A221"/>
<path d="M12.4231 16.0205C14.5863 16.0205 16.3462 14.2606 16.3462 12.0974C16.3462 9.93421 14.5863 8.17432 12.4231 8.17432C10.2599 8.17432 8.5 9.93421 8.5 12.0974C8.5 14.2606 10.2599 16.0205 12.4231 16.0205ZM12.4231 9.48201C13.8652 9.48201 15.0385 10.6553 15.0385 12.0974C15.0385 13.5395 13.8652 14.7128 12.4231 14.7128C10.981 14.7128 9.80769 13.5395 9.80769 12.0974C9.80769 10.6553 10.981 9.48201 12.4231 9.48201Z" fill="#D3A221"/>
<path d="M51.9808 8.82824C52.5224 8.82824 52.9615 8.38913 52.9615 7.84747C52.9615 7.3058 52.5224 6.8667 51.9808 6.8667C51.4391 6.8667 51 7.3058 51 7.84747C51 8.38913 51.4391 8.82824 51.9808 8.82824Z" fill="#D3A221"/>
<path d="M38.9034 13.4054C39.445 13.4054 39.8841 12.9663 39.8841 12.4246C39.8841 11.883 39.445 11.4438 38.9034 11.4438C38.3617 11.4438 37.9226 11.883 37.9226 12.4246C37.9226 12.9663 38.3617 13.4054 38.9034 13.4054Z" fill="#D3A221"/>
<path d="M19.9422 10.1359C20.4839 10.1359 20.923 9.69675 20.923 9.15509C20.923 8.61342 20.4839 8.17432 19.9422 8.17432C19.4005 8.17432 18.9614 8.61342 18.9614 9.15509C18.9614 9.69675 19.4005 10.1359 19.9422 10.1359Z" fill="#D3A221"/>
<path d="M60.4808 40.213C61.0224 40.213 61.4615 39.7739 61.4615 39.2322C61.4615 38.6906 61.0224 38.2515 60.4808 38.2515C59.9391 38.2515 59.5 38.6906 59.5 39.2322C59.5 39.7739 59.9391 40.213 60.4808 40.213Z" fill="#D3A221"/>
<path d="M6.86529 31.0592C7.40695 31.0592 7.84606 30.6201 7.84606 30.0784C7.84606 29.5368 7.40695 29.0977 6.86529 29.0977C6.32363 29.0977 5.88452 29.5368 5.88452 30.0784C5.88452 30.6201 6.32363 31.0592 6.86529 31.0592Z" fill="#D3A221"/>
<path d="M10.1348 46.7511C10.6765 46.7511 11.1156 46.312 11.1156 45.7703C11.1156 45.2287 10.6765 44.7896 10.1348 44.7896C9.59316 44.7896 9.15405 45.2287 9.15405 45.7703C9.15405 46.312 9.59316 46.7511 10.1348 46.7511Z" fill="#D3A221"/>
<path d="M44.1348 60.482C44.6765 60.482 45.1156 60.0429 45.1156 59.5013C45.1156 58.9596 44.6765 58.5205 44.1348 58.5205C43.5932 58.5205 43.1541 58.9596 43.1541 59.5013C43.1541 60.0429 43.5932 60.482 44.1348 60.482Z" fill="#D3A221"/>
</svg>
