<svg width="68" height="68" viewBox="0 0 68 68" fill="none" xmlns="http://www.w3.org/2000/svg">
<path d="M27.4695 42.4916H30.7338V45.756C30.7338 46.1171 31.0266 46.4098 31.3876 46.4098H35.3059C35.667 46.4098 35.9597 46.1171 35.9597 45.756V42.4916H39.224C39.5852 42.4916 39.8778 42.1989 39.8778 41.8377V37.9196C39.8778 37.5584 39.5852 37.2658 39.224 37.2658H35.9597V34.0015C35.9597 33.6403 35.667 33.3477 35.3059 33.3477H31.3876C31.0266 33.3477 30.7338 33.6403 30.7338 34.0015V37.2658H27.4695C27.1085 37.2658 26.8157 37.5584 26.8157 37.9196V41.8377C26.8157 42.1988 27.1083 42.4916 27.4695 42.4916ZM28.1234 38.5735H31.3876C31.7487 38.5735 32.0415 38.2808 32.0415 37.9196V34.6553H34.652V37.9196C34.652 38.2808 34.9447 38.5735 35.3059 38.5735H38.5701V41.1839H35.3059C34.9447 41.1839 34.652 41.4765 34.652 41.8377V45.1021H32.0415V41.8377C32.0415 41.4765 31.7487 41.1839 31.3876 41.1839H28.1234V38.5735Z" fill="#D3A221"/>
<path d="M44.2073 18.309H44.4185C46.0648 18.309 47.4043 16.9695 47.4043 15.323V14.1026C47.4043 12.4562 46.0648 11.1167 44.4185 11.1167H22.2748C20.6284 11.1167 19.2889 12.4562 19.2889 14.1027V15.3232C19.2889 16.9695 20.6284 18.3091 22.2748 18.3091H22.4861L17.4752 24.4336C17.3796 24.5504 17.3274 24.6967 17.3274 24.8476V56.1014C17.3274 59.0578 19.7326 61.463 22.6889 61.463H44.0043C46.9606 61.463 49.3659 59.0578 49.3659 56.1014C49.3659 52.1637 49.3659 28.7661 49.3659 24.8476C49.3659 24.6967 49.3137 24.5504 49.2181 24.4336L44.2073 18.309ZM18.6351 51.6552H48.0582V54.2705H18.6351V51.6552ZM18.6351 30.0782H28.0397C24.3956 31.9941 21.9044 35.8178 21.9044 40.2129C21.9044 44.6079 24.3956 48.4316 28.0397 50.3475H18.6351V30.0782ZM48.0582 50.3475H38.6536C42.2978 48.4316 44.7889 44.6079 44.7889 40.2129C44.7889 35.8178 42.2978 31.9941 38.6536 30.0782H48.0582V50.3475ZM43.4812 40.2129C43.4812 45.801 38.9348 50.3475 33.3466 50.3475C27.7585 50.3475 23.2121 45.801 23.2121 40.2129C23.2121 34.6247 27.7585 30.0782 33.3466 30.0782C38.9348 30.0782 43.4812 34.6247 43.4812 40.2129ZM20.5966 15.323V14.1026C20.5966 13.1771 21.3495 12.4243 22.2748 12.4243H44.4185C45.3438 12.4243 46.0966 13.1771 46.0966 14.1026V15.323C46.0966 16.2485 45.3438 17.0013 44.4185 17.0013C43.1105 17.0013 23.5944 17.0013 22.2748 17.0013C21.3495 17.0013 20.5966 16.2485 20.5966 15.323ZM24.1758 18.309H42.5176L48.0582 25.0809V28.7705H18.6351V25.0809L24.1758 18.309ZM44.0043 60.1552H22.6889C20.4537 60.1552 18.6351 58.3367 18.6351 56.1013V55.5782H48.0582V56.1013C48.0582 58.3367 46.2397 60.1552 44.0043 60.1552Z" fill="#D3A221"/>
<path d="M62.4428 17.6555C62.4428 15.4923 60.6829 13.7324 58.5198 13.7324C56.3566 13.7324 54.5967 15.4923 54.5967 17.6555C54.5967 19.8187 56.3566 21.5786 58.5198 21.5786C60.6829 21.5786 62.4428 19.8187 62.4428 17.6555ZM58.5198 20.2709C57.0776 20.2709 55.9044 19.0976 55.9044 17.6555C55.9044 16.2134 57.0776 15.0401 58.5198 15.0401C59.9619 15.0401 61.1351 16.2134 61.1351 17.6555C61.1351 19.0976 59.9619 20.2709 58.5198 20.2709Z" fill="#D3A221"/>
<path d="M9.48122 47.7324C6.9575 47.7324 4.9043 49.7856 4.9043 52.3093C4.9043 54.8331 6.9575 56.8863 9.48122 56.8863C12.0049 56.8863 14.0581 54.8331 14.0581 52.3093C14.0581 49.7856 12.0049 47.7324 9.48122 47.7324ZM9.48122 55.5786C7.67857 55.5786 6.21199 54.112 6.21199 52.3093C6.21199 50.5067 7.67857 49.0401 9.48122 49.0401C11.2839 49.0401 12.7505 50.5067 12.7505 52.3093C12.7505 54.112 11.2839 55.5786 9.48122 55.5786Z" fill="#D3A221"/>
<path d="M51.0005 9.15539C51.5422 9.15539 51.9813 8.71628 51.9813 8.17462C51.9813 7.63295 51.5422 7.19385 51.0005 7.19385C50.4589 7.19385 50.0198 7.63295 50.0198 8.17462C50.0198 8.71628 50.4589 9.15539 51.0005 9.15539Z" fill="#D3A221"/>
<path d="M61.462 34.0016C62.0036 34.0016 62.4427 33.5625 62.4427 33.0208C62.4427 32.4791 62.0036 32.04 61.462 32.04C60.9203 32.04 60.4812 32.4791 60.4812 33.0208C60.4812 33.5625 60.9203 34.0016 61.462 34.0016Z" fill="#D3A221"/>
<path d="M7.19268 9.15539C7.73435 9.15539 8.17345 8.71628 8.17345 8.17462C8.17345 7.63295 7.73435 7.19385 7.19268 7.19385C6.65102 7.19385 6.21191 7.63295 6.21191 8.17462C6.21191 8.71628 6.65102 9.15539 7.19268 9.15539Z" fill="#D3A221"/>
<path d="M13.0774 22.2325C13.6191 22.2325 14.0582 21.7934 14.0582 21.2518C14.0582 20.7101 13.6191 20.271 13.0774 20.271C12.5358 20.271 12.0967 20.7101 12.0967 21.2518C12.0967 21.7934 12.5358 22.2325 13.0774 22.2325Z" fill="#D3A221"/>
<path d="M10.462 40.8668C11.0036 40.8668 11.4427 40.4277 11.4427 39.886C11.4427 39.3444 11.0036 38.9053 10.462 38.9053C9.92031 38.9053 9.4812 39.3444 9.4812 39.886C9.4812 40.4277 9.92031 40.8668 10.462 40.8668Z" fill="#D3A221"/>
<path d="M56.2308 52.6363C56.7724 52.6363 57.2115 52.1972 57.2115 51.6556C57.2115 51.1139 56.7724 50.6748 56.2308 50.6748C55.6891 50.6748 55.25 51.1139 55.25 51.6556C55.25 52.1972 55.6891 52.6363 56.2308 52.6363Z" fill="#D3A221"/>
</svg>
