<svg width="68" height="68" viewBox="0 0 68 68" fill="none" xmlns="http://www.w3.org/2000/svg">
<path d="M64.0772 37.3034H62.0013C62.4576 36.0192 61.496 34.6881 60.1541 34.6881H60.1288C59.8425 30.6546 56.9328 27.337 53.0995 26.4336C53.4223 25.9987 53.6157 25.4623 53.6157 24.8804C53.6157 23.4382 52.4424 22.265 51.0003 22.265C49.5582 22.265 48.3849 23.4382 48.3849 24.8804C48.3849 25.4624 48.5783 25.9988 48.9011 26.4338C45.068 27.337 42.1586 30.6547 41.8723 34.6881H41.8465C40.5049 34.6881 39.5428 36.0189 39.9993 37.3034H35.9618V34.0342C35.9618 33.673 35.6692 33.3804 35.308 33.3804H29.9183L29.914 33.3563C29.6215 30.0242 27.0761 27.4009 23.8614 26.9214C25.2546 25.8443 26.1541 24.1583 26.1541 22.265C26.1541 19.0202 23.5143 16.3804 20.2695 16.3804C17.0248 16.3804 14.3849 19.0202 14.3849 22.265C14.3849 24.1581 15.2845 25.8443 16.6777 26.9214C13.4596 27.4015 10.9173 30.0278 10.625 33.3563L9.91509 37.3034H3.92338C3.56232 37.3034 3.26953 37.5961 3.26953 37.9573V43.1881C3.26953 43.5492 3.56232 43.8419 3.92338 43.8419H7.19261V63.4573C7.19261 63.8185 7.4854 64.1111 7.84645 64.1111H60.1541C60.5153 64.1111 60.808 63.8185 60.808 63.4573V43.8419H64.0772C64.4384 43.8419 64.7311 43.5492 64.7311 43.1881V37.9573C64.7311 37.5961 64.4384 37.3034 64.0772 37.3034ZM49.6926 24.8804C49.6926 24.1593 50.2792 23.5727 51.0003 23.5727C51.7214 23.5727 52.308 24.1593 52.308 24.8804C52.308 25.6014 51.7214 26.1881 51.0003 26.1881C50.2792 26.1881 49.6926 25.6014 49.6926 24.8804ZM51.0003 27.4958C55.1065 27.4958 58.4861 30.6665 58.8195 34.6881H43.1811C43.5145 30.6665 46.8941 27.4958 51.0003 27.4958ZM41.1926 36.6496C41.1926 36.2891 41.4859 35.9958 41.8465 35.9958H60.1541C60.5147 35.9958 60.808 36.2891 60.808 36.6496C60.808 37.0101 60.5147 37.3034 60.1541 37.3034H41.8465C41.4859 37.3034 41.1926 37.0101 41.1926 36.6496ZM34.6541 37.3034H25.5003V34.6881H34.6541V37.3034ZM15.6926 22.265C15.6926 19.7413 17.7458 17.6881 20.2695 17.6881C22.7932 17.6881 24.8465 19.7413 24.8465 22.265C24.8465 24.7887 22.7932 26.8419 20.2695 26.8419C17.7458 26.8419 15.6926 24.7887 15.6926 22.265ZM11.9255 33.4966C12.1754 30.4982 14.7279 28.1496 17.7365 28.1496H22.8025C25.7719 28.1496 28.2955 30.4379 28.601 33.3804H24.8465C24.4854 33.3804 24.1926 33.673 24.1926 34.0342V37.3034H16.3465V35.3419C16.3465 34.9807 16.0537 34.6881 15.6926 34.6881C15.3316 34.6881 15.0388 34.9807 15.0388 35.3419V37.3034H11.2437C11.9624 33.302 11.9207 33.5544 11.9255 33.4966ZM8.5003 43.8419H12.4234V62.8035H8.5003V43.8419ZM54.2695 43.8419V62.8035H13.7311V43.8419H54.2695ZM59.5003 62.8035H55.5772V43.8419H59.5003V62.8035ZM63.4234 42.5342C59.2471 42.5342 7.28585 42.5342 4.57722 42.5342V38.6111H63.4234V42.5342Z" fill="#D3A221"/>
<path d="M10.135 18.3418C12.4784 18.3418 14.385 16.4352 14.385 14.0918C14.385 11.7484 12.4784 9.8418 10.135 9.8418C7.79163 9.8418 5.88501 11.7484 5.88501 14.0918C5.88501 16.4352 7.79163 18.3418 10.135 18.3418ZM10.135 11.1495C11.7575 11.1495 13.0773 12.4693 13.0773 14.0918C13.0773 15.7143 11.7575 17.0341 10.135 17.0341C8.51256 17.0341 7.1927 15.7143 7.1927 14.0918C7.1927 12.4693 8.51256 11.1495 10.135 11.1495Z" fill="#D3A221"/>
<path d="M32.3658 26.1881C32.9074 26.1881 33.3465 25.749 33.3465 25.2073C33.3465 24.6657 32.9074 24.2266 32.3658 24.2266C31.8241 24.2266 31.385 24.6657 31.385 25.2073C31.385 25.749 31.8241 26.1881 32.3658 26.1881Z" fill="#D3A221"/>
<path d="M44.7884 23.5729C45.3301 23.5729 45.7692 23.1338 45.7692 22.5921C45.7692 22.0504 45.3301 21.6113 44.7884 21.6113C44.2467 21.6113 43.8076 22.0504 43.8076 22.5921C43.8076 23.1338 44.2467 23.5729 44.7884 23.5729Z" fill="#D3A221"/>
<path d="M61.1351 22.9191C61.6767 22.9191 62.1158 22.48 62.1158 21.9383C62.1158 21.3966 61.6767 20.9575 61.1351 20.9575C60.5934 20.9575 60.1543 21.3966 60.1543 21.9383C60.1543 22.48 60.5934 22.9191 61.1351 22.9191Z" fill="#D3A221"/>
<path d="M50.6734 7.22668C51.2151 7.22668 51.6542 6.78757 51.6542 6.24591C51.6542 5.70424 51.2151 5.26514 50.6734 5.26514C50.1317 5.26514 49.6926 5.70424 49.6926 6.24591C49.6926 6.78757 50.1317 7.22668 50.6734 7.22668Z" fill="#D3A221"/>
<path d="M16.6734 7.88048C17.2151 7.88048 17.6542 7.44138 17.6542 6.89971C17.6542 6.35805 17.2151 5.91895 16.6734 5.91895C16.1317 5.91895 15.6926 6.35805 15.6926 6.89971C15.6926 7.44138 16.1317 7.88048 16.6734 7.88048Z" fill="#D3A221"/>
<path d="M9.48077 27.4957C10.0224 27.4957 10.4615 27.0566 10.4615 26.5149C10.4615 25.9733 10.0224 25.5342 9.48077 25.5342C8.93911 25.5342 8.5 25.9733 8.5 26.5149C8.5 27.0566 8.93911 27.4957 9.48077 27.4957Z" fill="#D3A221"/>
<path d="M36.5829 7.09444C36.9668 7.09444 37.278 6.7832 37.278 6.39927C37.278 6.01534 36.9668 5.7041 36.5829 5.7041C36.1989 5.7041 35.8877 6.01534 35.8877 6.39927C35.8877 6.7832 36.1989 7.09444 36.5829 7.09444Z" fill="#D3A221"/>
<path d="M36.5829 19.1447C36.9668 19.1447 37.278 18.8335 37.278 18.4496C37.278 18.0656 36.9668 17.7544 36.5829 17.7544C36.1989 17.7544 35.8877 18.0656 35.8877 18.4496C35.8877 18.8335 36.1989 19.1447 36.5829 19.1447Z" fill="#D3A221"/>
<path d="M40.8436 8.85909C41.2275 8.85909 41.5388 8.54785 41.5388 8.16392C41.5388 7.77999 41.2275 7.46875 40.8436 7.46875C40.4597 7.46875 40.1484 7.77999 40.1484 8.16392C40.1484 8.54785 40.4597 8.85909 40.8436 8.85909Z" fill="#D3A221"/>
<path d="M32.3221 17.3801C32.7061 17.3801 33.0173 17.0688 33.0173 16.6849C33.0173 16.301 32.7061 15.9897 32.3221 15.9897C31.9382 15.9897 31.627 16.301 31.627 16.6849C31.627 17.0688 31.9382 17.3801 32.3221 17.3801Z" fill="#D3A221"/>
<path d="M42.608 13.1193C42.9919 13.1193 43.3032 12.8081 43.3032 12.4242C43.3032 12.0402 42.9919 11.729 42.608 11.729C42.2241 11.729 41.9128 12.0402 41.9128 12.4242C41.9128 12.8081 42.2241 13.1193 42.608 13.1193Z" fill="#D3A221"/>
<path d="M30.5577 13.1198C30.9416 13.1198 31.2529 12.8086 31.2529 12.4247C31.2529 12.0407 30.9416 11.7295 30.5577 11.7295C30.1738 11.7295 29.8625 12.0407 29.8625 12.4247C29.8625 12.8086 30.1738 13.1198 30.5577 13.1198Z" fill="#D3A221"/>
<path d="M32.3221 8.85909C32.7061 8.85909 33.0173 8.54785 33.0173 8.16392C33.0173 7.77999 32.7061 7.46875 32.3221 7.46875C31.9382 7.46875 31.627 7.77999 31.627 8.16392C31.627 8.54785 31.9382 8.85909 32.3221 8.85909Z" fill="#D3A221"/>
<path d="M40.8436 17.3801C41.2275 17.3801 41.5388 17.0688 41.5388 16.6849C41.5388 16.301 41.2275 15.9897 40.8436 15.9897C40.4597 15.9897 40.1484 16.301 40.1484 16.6849C40.1484 17.0688 40.4597 17.3801 40.8436 17.3801Z" fill="#D3A221"/>
<path d="M42.6162 18.4581C45.9431 15.1311 45.9431 9.71779 42.6162 6.39076C39.2817 3.05627 33.8841 3.05562 30.5488 6.39076C27.222 9.71779 27.222 15.1311 30.5488 18.4581C33.8833 21.7926 39.281 21.7933 42.6162 18.4581ZM31.4735 7.31543C34.2969 4.49186 38.8673 4.49146 41.6915 7.31543C44.5084 10.1325 44.5084 14.7163 41.6915 17.5335C38.8677 20.3569 34.2974 20.3574 31.4735 17.5335C28.6564 14.7163 28.6564 10.1326 31.4735 7.31543Z" fill="#D3A221"/>
<path d="M36.1644 12.9268C36.3401 13.073 36.5771 13.1158 36.7897 13.0448L39.5705 12.1179C39.9131 12.0037 40.0982 11.6334 39.984 11.2908C39.8699 10.948 39.4991 10.7629 39.157 10.8772L36.7218 11.6888L34.2209 9.60465C33.9431 9.37345 33.5312 9.41111 33.3 9.68834C33.0688 9.96583 33.1063 10.378 33.3837 10.6092L36.1644 12.9268Z" fill="#D3A221"/>
<path d="M56.885 16.3803C59.0482 16.3803 60.8081 14.6204 60.8081 12.4573C60.8081 10.2941 59.0482 8.53418 56.885 8.53418C54.7218 8.53418 52.9619 10.2941 52.9619 12.4573C52.9619 14.6204 54.7218 16.3803 56.885 16.3803ZM56.885 9.84187C58.3271 9.84187 59.5004 11.0151 59.5004 12.4573C59.5004 13.8994 58.3271 15.0726 56.885 15.0726C55.4429 15.0726 54.2696 13.8994 54.2696 12.4573C54.2696 11.0151 55.4429 9.84187 56.885 9.84187Z" fill="#D3A221"/>
<path d="M17.0003 60.8417H51.0003C51.3615 60.8417 51.6541 60.549 51.6541 60.1878V46.4571C51.6541 46.0959 51.3615 45.8032 51.0003 45.8032H17.0003C16.6392 45.8032 16.3464 46.0959 16.3464 46.4571V60.1878C16.3464 60.549 16.6392 60.8417 17.0003 60.8417ZM17.6541 47.1109H50.3464V59.534H17.6541V47.1109Z" fill="#D3A221"/>
</svg>
