<svg width="68" height="68" viewBox="0 0 68 68" fill="none" xmlns="http://www.w3.org/2000/svg">
<path d="M54.7926 28.4438H40.3886L46.3622 15.6433C46.5641 15.2106 46.2479 14.713 45.7696 14.713H40.5389C40.2849 14.713 40.0539 14.8601 39.9464 15.0904L34.0003 27.8317L28.0543 15.0903C27.947 14.86 27.7159 14.7129 27.4618 14.7129H22.2311C21.7536 14.7129 21.4362 15.2098 21.6385 15.6432L27.6121 28.4437H13.208C10.2517 28.4437 7.84644 30.8489 7.84644 33.8052V56.4283C7.84644 59.3846 10.2517 61.7898 13.208 61.7898H54.7926C57.7489 61.7898 60.1541 59.3846 60.1541 56.4283V33.8052C60.1541 30.849 57.7489 28.4438 54.7926 28.4438ZM40.9552 16.0207H44.743L36.1993 34.3284H32.4117L40.9552 16.0207ZM27.0455 16.0207L33.2788 29.3779L31.3849 33.4362L23.2577 16.0207H27.0455ZM58.8464 56.4284C58.8464 58.6638 57.028 60.4823 54.7926 60.4823H13.208C10.9727 60.4823 9.15413 58.6638 9.15413 56.4284V33.8053C9.15413 31.5701 10.9727 29.7515 13.208 29.7515H28.2224L30.3582 34.3284H29.4234C29.0623 34.3284 28.7695 34.6211 28.7695 34.9823C28.7695 35.3434 29.0623 35.6361 29.4234 35.6361C29.4367 35.6361 31.5184 35.6362 31.3853 35.6362C31.5637 35.6362 39.0116 35.6361 38.5772 35.6361C38.9384 35.6361 39.2311 35.3434 39.2311 34.9823C39.2311 34.6211 38.9384 34.3284 38.5772 34.3284H37.6425L39.7783 29.7515H54.7926C57.028 29.7515 58.8464 31.5701 58.8464 33.8053V56.4284Z" fill="#D3A221"/>
<path d="M22.9289 42.0166C23.9261 41.2483 24.5704 40.0432 24.5704 38.69C24.5704 36.375 22.687 34.4917 20.372 34.4917C18.057 34.4917 16.1738 36.375 16.1738 38.69C16.1738 40.0434 16.818 41.2483 17.8152 42.0166C13.6503 43.4782 11.5358 48.1309 13.1942 52.2273C13.2943 52.4743 13.534 52.6358 13.8003 52.6358H26.9441C27.2105 52.6358 27.4502 52.4743 27.5502 52.2273C29.2061 48.1366 27.0988 43.48 22.9289 42.0166ZM21.3891 47.0161L20.372 48.0331L19.3549 47.0161L20.372 44.1745L21.3891 47.0161ZM20.372 35.7993C21.966 35.7993 23.2627 37.096 23.2627 38.6899C23.2627 40.2837 21.9658 41.5804 20.372 41.5804C18.7782 41.5804 17.4815 40.2837 17.4815 38.6899C17.4815 37.096 18.7782 35.7993 20.372 35.7993ZM26.4876 51.3281H24.5706V49.3235C24.5706 48.9624 24.2778 48.6697 23.9168 48.6697C23.5557 48.6697 23.2629 48.9624 23.2629 49.3235V51.3281H17.4815V49.3235C17.4815 48.9624 17.1887 48.6697 16.8276 48.6697C16.4666 48.6697 16.1738 48.9624 16.1738 49.3235V51.3281H14.2567C14.0444 50.682 13.937 50.0094 13.937 49.3235C13.937 46.0993 16.3207 43.4219 19.4182 42.9595L17.9843 46.9654C17.8992 47.2034 17.9588 47.4692 18.1376 47.648L19.9099 49.4203C20.1653 49.6757 20.5792 49.6757 20.8346 49.4203L22.6069 47.648C22.7856 47.4692 22.8453 47.2035 22.7601 46.9654L21.3262 42.9595C24.4238 43.4219 26.8076 46.0993 26.8076 49.3235C26.8073 50.0094 26.6999 50.682 26.4876 51.3281Z" fill="#D3A221"/>
<path d="M26.8077 53.9438H13.7308C13.3697 53.9438 13.0769 54.2365 13.0769 54.5977C13.0769 54.9589 13.3697 55.2515 13.7308 55.2515H26.8077C27.1687 55.2515 27.4615 54.9589 27.4615 54.5977C27.4615 54.2365 27.1687 53.9438 26.8077 53.9438Z" fill="#D3A221"/>
<path d="M54.9231 53.9438H34.6538C34.2927 53.9438 34 54.2365 34 54.5977C34 54.9589 34.2927 55.2515 34.6538 55.2515H54.9231C55.2843 55.2515 55.5769 54.9589 55.5769 54.5977C55.5769 54.2365 55.2843 53.9438 54.9231 53.9438Z" fill="#D3A221"/>
<path d="M54.9231 51.3281H34.6538C34.2927 51.3281 34 51.6208 34 51.982C34 52.3432 34.2927 52.6358 34.6538 52.6358H54.9231C55.2843 52.6358 55.5769 52.3432 55.5769 51.982C55.5769 51.6208 55.2843 51.3281 54.9231 51.3281Z" fill="#D3A221"/>
<path d="M54.9231 48.7129H34.6538C34.2927 48.7129 34 49.0056 34 49.3667C34 49.7279 34.2927 50.0206 34.6538 50.0206H54.9231C55.2843 50.0206 55.5769 49.7279 55.5769 49.3667C55.5769 49.0056 55.2843 48.7129 54.9231 48.7129Z" fill="#D3A221"/>
<path d="M54.9231 46.0977H34.6538C34.2927 46.0977 34 46.3903 34 46.7515C34 47.1127 34.2927 47.4053 34.6538 47.4053H54.9231C55.2843 47.4053 55.5769 47.1127 55.5769 46.7515C55.5769 46.3903 55.2843 46.0977 54.9231 46.0977Z" fill="#D3A221"/>
<path d="M34.6538 44.7896H48.3846C48.7458 44.7896 49.0385 44.497 49.0385 44.1358C49.0385 43.7746 48.7458 43.4819 48.3846 43.4819H34.6538C34.2927 43.4819 34 43.7746 34 44.1358C34 44.497 34.2927 44.7896 34.6538 44.7896Z" fill="#D3A221"/>
<path d="M32.6927 55.2515C33.0538 55.2515 33.3465 54.9588 33.3465 54.5977C33.3465 54.2366 33.0538 53.9438 32.6927 53.9438C32.3316 53.9438 32.0388 54.2366 32.0388 54.5977C32.0388 54.9588 32.3316 55.2515 32.6927 55.2515Z" fill="#D3A221"/>
<path d="M32.6927 52.6358C33.0538 52.6358 33.3465 52.3431 33.3465 51.982C33.3465 51.6209 33.0538 51.3281 32.6927 51.3281C32.3316 51.3281 32.0388 51.6209 32.0388 51.982C32.0388 52.3431 32.3316 52.6358 32.6927 52.6358Z" fill="#D3A221"/>
<path d="M32.6927 50.0206C33.0538 50.0206 33.3465 49.7278 33.3465 49.3667C33.3465 49.0056 33.0538 48.7129 32.6927 48.7129C32.3316 48.7129 32.0388 49.0056 32.0388 49.3667C32.0388 49.7278 32.3316 50.0206 32.6927 50.0206Z" fill="#D3A221"/>
<path d="M32.6927 47.4053C33.0538 47.4053 33.3465 47.1126 33.3465 46.7515C33.3465 46.3904 33.0538 46.0977 32.6927 46.0977C32.3316 46.0977 32.0388 46.3904 32.0388 46.7515C32.0388 47.1126 32.3316 47.4053 32.6927 47.4053Z" fill="#D3A221"/>
<path d="M32.6927 44.7896C33.0538 44.7896 33.3465 44.4969 33.3465 44.1358C33.3465 43.7747 33.0538 43.4819 32.6927 43.4819C32.3316 43.4819 32.0388 43.7747 32.0388 44.1358C32.0388 44.4969 32.3316 44.7896 32.6927 44.7896Z" fill="#D3A221"/>
<path d="M11.7692 23.2128C13.5719 23.2128 15.0385 21.7462 15.0385 19.9435C15.0385 18.1409 13.5719 16.6743 11.7692 16.6743C9.96658 16.6743 8.5 18.1409 8.5 19.9435C8.5 21.7462 9.96658 23.2128 11.7692 23.2128ZM11.7692 17.982C12.8508 17.982 13.7308 18.862 13.7308 19.9435C13.7308 21.0251 12.8508 21.9051 11.7692 21.9051C10.6876 21.9051 9.80769 21.0251 9.80769 19.9435C9.80769 18.862 10.6876 17.982 11.7692 17.982Z" fill="#D3A221"/>
<path d="M56.5574 11.4438C54.2139 11.4438 52.3074 13.3505 52.3074 15.6938C52.3074 18.0372 54.2139 19.9438 56.5574 19.9438C58.9009 19.9438 60.8074 18.0372 60.8074 15.6938C60.8074 13.3505 58.9009 11.4438 56.5574 11.4438ZM56.5574 18.6362C54.9351 18.6362 53.6151 17.3163 53.6151 15.6938C53.6151 14.0714 54.9351 12.7515 56.5574 12.7515C58.1797 12.7515 59.4997 14.0714 59.4997 15.6938C59.4997 17.3163 58.1797 18.6362 56.5574 18.6362Z" fill="#D3A221"/>
<path d="M59.8272 23.8668C60.3689 23.8668 60.808 23.4277 60.808 22.886C60.808 22.3444 60.3689 21.9053 59.8272 21.9053C59.2855 21.9053 58.8464 22.3444 58.8464 22.886C58.8464 23.4277 59.2855 23.8668 59.8272 23.8668Z" fill="#D3A221"/>
<path d="M46.0958 25.8282C46.6374 25.8282 47.0765 25.3891 47.0765 24.8475C47.0765 24.3058 46.6374 23.8667 46.0958 23.8667C45.5541 23.8667 45.115 24.3058 45.115 24.8475C45.115 25.3891 45.5541 25.8282 46.0958 25.8282Z" fill="#D3A221"/>
<path d="M46.7501 10.7897C47.2917 10.7897 47.7308 10.3506 47.7308 9.80889C47.7308 9.26723 47.2917 8.82812 46.7501 8.82812C46.2084 8.82812 45.7693 9.26723 45.7693 9.80889C45.7693 10.3506 46.2084 10.7897 46.7501 10.7897Z" fill="#D3A221"/>
<path d="M27.1346 8.82824C27.6762 8.82824 28.1153 8.38913 28.1153 7.84747C28.1153 7.3058 27.6762 6.8667 27.1346 6.8667C26.5929 6.8667 26.1538 7.3058 26.1538 7.84747C26.1538 8.38913 26.5929 8.82824 27.1346 8.82824Z" fill="#D3A221"/>
<path d="M14.712 12.7511C15.2536 12.7511 15.6927 12.312 15.6927 11.7703C15.6927 11.2287 15.2536 10.7896 14.712 10.7896C14.1703 10.7896 13.7312 11.2287 13.7312 11.7703C13.7312 12.312 14.1703 12.7511 14.712 12.7511Z" fill="#D3A221"/>
<path d="M19.9422 24.5206C20.4839 24.5206 20.923 24.0815 20.923 23.5399C20.923 22.9982 20.4839 22.5591 19.9422 22.5591C19.4005 22.5591 18.9614 22.9982 18.9614 23.5399C18.9614 24.0815 19.4005 24.5206 19.9422 24.5206Z" fill="#D3A221"/>
<path d="M5.55767 29.0973C6.09934 29.0973 6.53844 28.6582 6.53844 28.1165C6.53844 27.5748 6.09934 27.1357 5.55767 27.1357C5.01601 27.1357 4.5769 27.5748 4.5769 28.1165C4.5769 28.6582 5.01601 29.0973 5.55767 29.0973Z" fill="#D3A221"/>
<path d="M62.4422 38.9054C62.9839 38.9054 63.423 38.4663 63.423 37.9246C63.423 37.383 62.9839 36.9438 62.4422 36.9438C61.9005 36.9438 61.4614 37.383 61.4614 37.9246C61.4614 38.4663 61.9005 38.9054 62.4422 38.9054Z" fill="#D3A221"/>
</svg>
